<?xml version="1.0" encoding="UTF-8" standalone="no"?><svg xmlns="http://www.w3.org/2000/svg" xmlns:xlink="http://www.w3.org/1999/xlink" contentScriptType="application/ecmascript" contentStyleType="text/css" height="188px" preserveAspectRatio="none" style="width:453px;height:188px;" version="1.1" viewBox="0 0 453 188" width="453px" zoomAndPan="magnify"><defs><filter height="300%" id="fjen913m1p3f4" width="300%" x="-1" y="-1"><feGaussianBlur result="blurOut" stdDeviation="2.0"/><feColorMatrix in="blurOut" result="blurOut2" type="matrix" values="0 0 0 0 0 0 0 0 0 0 0 0 0 0 0 0 0 0 .4 0"/><feOffset dx="4.0" dy="4.0" in="blurOut2" result="blurOut3"/><feBlend in="SourceGraphic" in2="blurOut3" mode="normal"/></filter></defs><g><!--entity node1--><polygon fill="#FEFECE" filter="url(#fjen913m1p3f4)" points="178,18,188,8,258,8,258,44.0986,248,54.0986,178,54.0986,178,18" style="stroke: #000000; stroke-width: 1.5;"/><line style="stroke: #000000; stroke-width: 1.5;" x1="248" x2="257" y1="18" y2="9"/><line style="stroke: #000000; stroke-width: 1.5;" x1="178" x2="248" y1="18" y2="18"/><line style="stroke: #000000; stroke-width: 1.5;" x1="248" x2="248" y1="18" y2="54.0986"/><text fill="#000000" font-family="sans-serif" font-size="14" lengthAdjust="spacingAndGlyphs" textLength="40" x="193" y="41.1318">node1</text><!--entity node2--><polygon fill="#FEFECE" filter="url(#fjen913m1p3f4)" points="6,140,16,130,86,130,86,166.0986,76,176.0986,6,176.0986,6,140" style="stroke: #000000; stroke-width: 1.5;"/><line style="stroke: #000000; stroke-width: 1.5;" x1="76" x2="85" y1="140" y2="131"/><line style="stroke: #000000; stroke-width: 1.5;" x1="6" x2="76" y1="140" y2="140"/><line style="stroke: #000000; stroke-width: 1.5;" x1="76" x2="76" y1="140" y2="176.0986"/><text fill="#000000" font-family="sans-serif" font-size="14" lengthAdjust="spacingAndGlyphs" textLength="40" x="21" y="163.1318">node2</text><!--entity node3--><polygon fill="#FEFECE" filter="url(#fjen913m1p3f4)" points="121,140,131,130,201,130,201,166.0986,191,176.0986,121,176.0986,121,140" style="stroke: #000000; stroke-width: 1.5;"/><line style="stroke: #000000; stroke-width: 1.5;" x1="191" x2="200" y1="140" y2="131"/><line style="stroke: #000000; stroke-width: 1.5;" x1="121" x2="191" y1="140" y2="140"/><line style="stroke: #000000; stroke-width: 1.5;" x1="191" x2="191" y1="140" y2="176.0986"/><text fill="#000000" font-family="sans-serif" font-size="14" lengthAdjust="spacingAndGlyphs" textLength="40" x="136" y="163.1318">node3</text><!--entity node4--><polygon fill="#FEFECE" filter="url(#fjen913m1p3f4)" points="236,140,246,130,316,130,316,166.0986,306,176.0986,236,176.0986,236,140" style="stroke: #000000; stroke-width: 1.5;"/><line style="stroke: #000000; stroke-width: 1.5;" x1="306" x2="315" y1="140" y2="131"/><line style="stroke: #000000; stroke-width: 1.5;" x1="236" x2="306" y1="140" y2="140"/><line style="stroke: #000000; stroke-width: 1.5;" x1="306" x2="306" y1="140" y2="176.0986"/><text fill="#000000" font-family="sans-serif" font-size="14" lengthAdjust="spacingAndGlyphs" textLength="40" x="251" y="163.1318">node4</text><!--entity node5--><polygon fill="#FEFECE" filter="url(#fjen913m1p3f4)" points="351,140,361,130,431,130,431,166.0986,421,176.0986,351,176.0986,351,140" style="stroke: #000000; stroke-width: 1.5;"/><line style="stroke: #000000; stroke-width: 1.5;" x1="421" x2="430" y1="140" y2="131"/><line style="stroke: #000000; stroke-width: 1.5;" x1="351" x2="421" y1="140" y2="140"/><line style="stroke: #000000; stroke-width: 1.5;" x1="421" x2="421" y1="140" y2="176.0986"/><text fill="#000000" font-family="sans-serif" font-size="14" lengthAdjust="spacingAndGlyphs" textLength="40" x="366" y="163.1318">node5</text><!--link node1 to node2--><path d="M184.6329,54.1167 C171.3382,63.367 155.9163,74.1472 142,84 C120.558,99.181 96.558,116.431 77.9185,129.8858 " fill="none" id="node1-node2" style="stroke: #A80036; stroke-width: 1.0;"/><text fill="#000000" font-family="sans-serif" font-size="13" lengthAdjust="spacingAndGlyphs" textLength="34" x="143" y="97.1938">label1</text><!--link node1 to node3--><path d="M207.1446,54.2344 C197.0021,75.9429 181.9444,108.1716 171.815,129.8521 " fill="none" id="node1-node3" style="stroke: #A80036; stroke-width: 1.0; stroke-dasharray: 7.0,7.0;"/><text fill="#000000" font-family="sans-serif" font-size="13" lengthAdjust="spacingAndGlyphs" textLength="34" x="193" y="97.1938">label2</text><!--link node1 to node4--><path d="M229.0459,54.2344 C239.3663,75.9429 254.6882,108.1716 264.9952,129.8521 " fill="none" id="node1-node4" style="stroke: #A80036; stroke-width: 1.0; stroke-dasharray: 1.0,3.0;"/><text fill="#000000" font-family="sans-serif" font-size="13" lengthAdjust="spacingAndGlyphs" textLength="34" x="251" y="97.1938">label3</text><!--link node1 to node5--><path d="M251.3422,54.1518 C264.6335,63.407 280.0596,74.1813 294,84 C315.6269,99.2325 339.8769,116.4825 358.7202,129.9244 " fill="none" id="node1-node5" style="stroke: #A80036; stroke-width: 2.0;"/><!--
@startuml

node node1
node node2
node node3
node node4
node node5
node1 - - node2 : label1
node1 .. node3 : label2
node1 ~~ node4 : label3
node1 == node5

@enduml

PlantUML version 1.2018.09(Sat Jul 28 00:58:18 CST 2018)
(GPL source distribution)
Java Runtime: OpenJDK Runtime Environment
JVM: OpenJDK 64-Bit Server VM
Java Version: 1.8.0_161-b14
Operating System: Linux
OS Version: 3.10.0-327.22.2.el7.x86_64
Default Encoding: UTF-8
Language: en
Country: US
--></g></svg>