<?xml version="1.0" encoding="UTF-8" standalone="no"?><svg xmlns="http://www.w3.org/2000/svg" xmlns:xlink="http://www.w3.org/1999/xlink" contentScriptType="application/ecmascript" contentStyleType="text/css" height="140px" preserveAspectRatio="none" style="width:421px;height:140px;" version="1.1" viewBox="0 0 421 140" width="421px" zoomAndPan="magnify"><defs><filter height="300%" id="f1noegsz7mzg1r" width="300%" x="-1" y="-1"><feGaussianBlur result="blurOut" stdDeviation="2.0"/><feColorMatrix in="blurOut" result="blurOut2" type="matrix" values="0 0 0 0 0 0 0 0 0 0 0 0 0 0 0 0 0 0 .4 0"/><feOffset dx="4.0" dy="4.0" in="blurOut2" result="blurOut3"/><feBlend in="SourceGraphic" in2="blurOut3" mode="normal"/></filter></defs><g><!--cluster Foo1--><rect fill="#FFFFFF" filter="url(#f1noegsz7mzg1r)" height="74" style="stroke: #000000; stroke-width: 1.5;" width="80" x="14" y="46.5"/><polygon fill="#FFFFFF" points="77,51.5,77,65.5,89,65.5,89,57.5,83,51.5,77,51.5" style="stroke: #000000; stroke-width: 1.5;"/><line style="stroke: #000000; stroke-width: 1.5;" x1="83" x2="83" y1="51.5" y2="57.5"/><line style="stroke: #000000; stroke-width: 1.5;" x1="89" x2="83" y1="57.5" y2="57.5"/><text fill="#000000" font-family="sans-serif" font-size="14" font-weight="bold" lengthAdjust="spacingAndGlyphs" textLength="37" x="35.5" y="61.6318">Foo1</text><!--cluster Foo3--><polygon fill="#FFFFFF" filter="url(#f1noegsz7mzg1r)" points="112,46.5,155,46.5,162,68.5986,192,68.5986,192,120.5,112,120.5,112,46.5" style="stroke: #000000; stroke-width: 1.5;"/><line style="stroke: #000000; stroke-width: 1.5;" x1="112" x2="162" y1="68.5986" y2="68.5986"/><text fill="#000000" font-family="sans-serif" font-size="14" font-weight="bold" lengthAdjust="spacingAndGlyphs" textLength="37" x="116" y="61.6318">Foo3</text><!--cluster Foo5--><rect fill="#FFFFFF" filter="url(#f1noegsz7mzg1r)" height="80" style="stroke: #000000; stroke-width: 1.5;" width="70" x="210" y="43.5"/><path d="M257,44.5 L257,52.5986 L247,62.5986 L210,62.5986 " fill="none" style="stroke: #000000; stroke-width: 1.5;"/><text fill="#000000" font-family="sans-serif" font-size="14" font-weight="bold" lengthAdjust="spacingAndGlyphs" textLength="37" x="213" y="57.6318">Foo5</text><!--cluster vpc--><path d="M292,23 C292,20 294,18 297,18 C300,18 302,20 302,23 C302,20 304,18 307,18 C310,18 312,20 312,23 C312,20 314,18 317,18 C320,18 322,20 322,23 C322,20 324,18 327,18 C330,18 332,20 332,23 C332,20 334,18 337,18 C340,18 342,20 342,23 C342,20 344,18 347,18 C350,18 352,20 352,23 C352,20 354,18 357,18 C360,18 362,20 362,23 C362,20 364,18 367,18 C370,18 372,20 372,23 C372,20 374,18 377,18 C380,18 382,20 382,23 C382,20 384,18 387,18 C390,18 392,20 392,23 C392,20 394,18 397,18 C400,18 402,20 402,23 C405,23 407,25 407,28 C407,31 405,33 402,33 C405,33 407,35 407,38 C407,41 405,43 402,43 C405,43 407,45 407,48 C407,51 405,53 402,53 C405,53 407,55 407,58 C407,61 405,63 402,63 C405,63 407,65 407,68 C407,71 405,73 402,73 C405,73 407,75 407,78 C407,81 405,83 402,83 C405,83 407,85 407,88 C407,91 405,93 402,93 C405,93 407,95 407,98 C407,101 405,103 402,103 C405,103 407,105 407,108 C407,111 405,113 402,113 C405,113 407,115 407,118 C407,121 405,123 402,123 C402,126 399,128 397,128 C394,128 392,126 392,123 C392,126 389,128 387,128 C384,128 382,126 382,123 C382,126 379,128 377,128 C374,128 372,126 372,123 C372,126 369,128 367,128 C364,128 362,126 362,123 C362,126 359,128 357,128 C354,128 352,126 352,123 C352,126 349,128 347,128 C344,128 342,126 342,123 C342,126 339,128 337,128 C334,128 332,126 332,123 C332,126 329,128 327,128 C324,128 322,126 322,123 C322,126 319,128 317,128 C314,128 312,126 312,123 C312,126 309,128 307,128 C304,128 302,126 302,123 C302,126 299,128 297,128 C294,128 292,126 292,123 C289,123 287,121 287,118 C287,115 289,113 292,113 C289,113 287,111 287,108 C287,105 289,103 292,103 C289,103 287,101 287,98 C287,95 289,93 292,93 C289,93 287,91 287,88 C287,85 289,83 292,83 C289,83 287,81 287,78 C287,75 289,73 292,73 C289,73 287,71 287,68 C287,65 289,63 292,63 C289,63 287,61 287,58 C287,55 289,53 292,53 C289,53 287,51 287,48 C287,45 289,43 292,43 C289,43 287,41 287,38 C287,35 289,33 292,33 C289,33 287,31 287,28 C287,25 289,23 292,23 " fill="#FFFFFF" filter="url(#f1noegsz7mzg1r)" style="stroke: #000000; stroke-width: 1.5;"/><text fill="#000000" font-family="sans-serif" font-size="14" font-weight="bold" lengthAdjust="spacingAndGlyphs" textLength="25" x="335.5" y="42.1318">vpc</text><!--cluster ec2--><polygon fill="#FFFFFF" filter="url(#f1noegsz7mzg1r)" points="297,53,307,43,399,43,399,109,389,119,297,119,297,53" style="stroke: #000000; stroke-width: 1.5;"/><line style="stroke: #000000; stroke-width: 1.5;" x1="389" x2="398" y1="53" y2="44"/><line style="stroke: #000000; stroke-width: 1.5;" x1="297" x2="389" y1="53" y2="53"/><line style="stroke: #000000; stroke-width: 1.5;" x1="389" x2="389" y1="53" y2="119"/><text fill="#000000" font-family="sans-serif" font-size="14" font-weight="bold" lengthAdjust="spacingAndGlyphs" textLength="26" x="331" y="69.1318">ec2</text><!--entity Foo2--><polygon fill="#FEFECE" filter="url(#f1noegsz7mzg1r)" points="22.5,73.5,61.5,73.5,68.5,95.5986,85.5,95.5986,85.5,112.5986,22.5,112.5986,22.5,73.5" style="stroke: #000000; stroke-width: 1.5;"/><line style="stroke: #000000; stroke-width: 1.5;" x1="22.5" x2="68.5" y1="95.5986" y2="95.5986"/><text fill="#000000" font-family="sans-serif" font-size="14" lengthAdjust="spacingAndGlyphs" textLength="33" x="26.5" y="89.6318">Foo2</text><!--entity Foo4--><rect fill="#FEFECE" filter="url(#f1noegsz7mzg1r)" height="39.0986" style="stroke: #000000; stroke-width: 1.5;" width="63" x="120.5" y="73.5"/><polygon fill="#FEFECE" points="166.5,78.5,166.5,92.5,178.5,92.5,178.5,84.5,172.5,78.5,166.5,78.5" style="stroke: #000000; stroke-width: 1.5;"/><line style="stroke: #000000; stroke-width: 1.5;" x1="172.5" x2="172.5" y1="78.5" y2="84.5"/><line style="stroke: #000000; stroke-width: 1.5;" x1="178.5" x2="172.5" y1="84.5" y2="84.5"/><text fill="#000000" font-family="sans-serif" font-size="14" lengthAdjust="spacingAndGlyphs" textLength="33" x="130.5" y="99.6318">Foo4</text><!--entity Foo6--><path d="M218.5,80.5 C218.5,70.5 245,70.5 245,70.5 C245,70.5 271.5,70.5 271.5,80.5 L271.5,105.5986 C271.5,115.5986 245,115.5986 245,115.5986 C245,115.5986 218.5,115.5986 218.5,105.5986 L218.5,80.5 " fill="#FEFECE" filter="url(#f1noegsz7mzg1r)" style="stroke: #000000; stroke-width: 1.5;"/><path d="M218.5,80.5 C218.5,90.5 245,90.5 245,90.5 C245,90.5 271.5,90.5 271.5,80.5 " fill="none" style="stroke: #000000; stroke-width: 1.5;"/><text fill="#000000" font-family="sans-serif" font-size="14" lengthAdjust="spacingAndGlyphs" textLength="33" x="228.5" y="107.6318">Foo6</text><!--entity stack--><rect fill="#FEFECE" filter="url(#f1noegsz7mzg1r)" height="36.0986" style="stroke: none; stroke-width: 1.5;" width="53" x="321.5" y="75"/><path d="M306.5,75 L321.5,75 L321.5,111.0986 L374.5,111.0986 L374.5,75 L389.5,75 " fill="none" style="stroke: #A80036; stroke-width: 1.5;"/><text fill="#000000" font-family="sans-serif" font-size="14" lengthAdjust="spacingAndGlyphs" textLength="33" x="331.5" y="98.1318">stack</text><!--
@startuml
artifact Foo1 {
  folder Foo2
}

folder Foo3 {
  artifact Foo4
}

frame Foo5 {
  database Foo6
}

cloud vpc {
  node ec2 {
stack stack
  }
}

@enduml

PlantUML version 1.2018.09(Sat Jul 28 00:58:18 CST 2018)
(GPL source distribution)
Java Runtime: OpenJDK Runtime Environment
JVM: OpenJDK 64-Bit Server VM
Java Version: 1.8.0_161-b14
Operating System: Linux
OS Version: 3.10.0-327.22.2.el7.x86_64
Default Encoding: UTF-8
Language: en
Country: US
--></g></svg>