<?xml version="1.0" encoding="UTF-8" standalone="no"?><svg xmlns="http://www.w3.org/2000/svg" xmlns:xlink="http://www.w3.org/1999/xlink" contentScriptType="application/ecmascript" contentStyleType="text/css" height="324px" preserveAspectRatio="none" style="width:445px;height:324px;" version="1.1" viewBox="0 0 445 324" width="445px" zoomAndPan="magnify"><defs><filter height="300%" id="f1x514zejlvy6c" width="300%" x="-1" y="-1"><feGaussianBlur result="blurOut" stdDeviation="2.0"/><feColorMatrix in="blurOut" result="blurOut2" type="matrix" values="0 0 0 0 0 0 0 0 0 0 0 0 0 0 0 0 0 0 .4 0"/><feOffset dx="4.0" dy="4.0" in="blurOut2" result="blurOut3"/><feBlend in="SourceGraphic" in2="blurOut3" mode="normal"/></filter></defs><g><!--entity folder--><polygon fill="#FEFECE" filter="url(#f1x514zejlvy6c)" points="6,8,48,8,55,30.0986,192,30.0986,192,135.4932,6,135.4932,6,8" style="stroke: #000000; stroke-width: 1.5;"/><line style="stroke: #000000; stroke-width: 1.5;" x1="6" x2="55" y1="30.0986" y2="30.0986"/><text fill="#000000" font-family="sans-serif" font-size="14" lengthAdjust="spacingAndGlyphs" textLength="36" x="10" y="24.1318">folder</text><text fill="#000000" font-family="sans-serif" font-size="14" lengthAdjust="spacingAndGlyphs" textLength="53" x="16" y="50.2305">This is a</text><text fill="#000000" font-family="sans-serif" font-size="14" font-weight="bold" lengthAdjust="spacingAndGlyphs" textLength="42" x="73" y="50.2305">folder</text><line style="stroke: #000000; stroke-width: 1.0;" x1="7" x2="191" y1="53.1973" y2="53.1973"/><text fill="#000000" font-family="sans-serif" font-size="14" lengthAdjust="spacingAndGlyphs" textLength="144" x="22" y="70.3291">You can use separator</text><line style="stroke: #000000; stroke-width: 1.0;" x1="7" x2="191" y1="77.2959" y2="77.2959"/><line style="stroke: #000000; stroke-width: 1.0;" x1="7" x2="191" y1="79.2959" y2="79.2959"/><text fill="#000000" font-family="sans-serif" font-size="14" lengthAdjust="spacingAndGlyphs" textLength="98" x="22" y="94.4277">of different kind</text><line style="stroke: #000000; stroke-width: 1.0; stroke-dasharray: 1.0,2.0;" x1="7" x2="191" y1="101.3945" y2="101.3945"/><text fill="#000000" font-family="sans-serif" font-size="14" lengthAdjust="spacingAndGlyphs" textLength="57" x="22" y="118.5264">and style</text><!--entity node--><polygon fill="#FEFECE" filter="url(#f1x514zejlvy6c)" points="227,22.5,237,12.5,423,12.5,423,120.8945,413,130.8945,227,130.8945,227,22.5" style="stroke: #000000; stroke-width: 1.5;"/><line style="stroke: #000000; stroke-width: 1.5;" x1="413" x2="422" y1="22.5" y2="13.5"/><line style="stroke: #000000; stroke-width: 1.5;" x1="227" x2="413" y1="22.5" y2="22.5"/><line style="stroke: #000000; stroke-width: 1.5;" x1="413" x2="413" y1="22.5" y2="130.8945"/><text fill="#000000" font-family="sans-serif" font-size="14" lengthAdjust="spacingAndGlyphs" textLength="53" x="242" y="45.6318">This is a</text><text fill="#000000" font-family="sans-serif" font-size="14" font-weight="bold" lengthAdjust="spacingAndGlyphs" textLength="36" x="299" y="45.6318">node</text><line style="stroke: #000000; stroke-width: 1.0;" x1="227" x2="413" y1="48.5986" y2="48.5986"/><line style="stroke: #000000; stroke-width: 1.0;" x1="413" x2="423" y1="48.5986" y2="38.5986"/><text fill="#000000" font-family="sans-serif" font-size="14" lengthAdjust="spacingAndGlyphs" textLength="144" x="248" y="65.7305">You can use separator</text><line style="stroke: #000000; stroke-width: 1.0;" x1="227" x2="413" y1="72.6973" y2="72.6973"/><line style="stroke: #000000; stroke-width: 1.0;" x1="413" x2="423" y1="72.6973" y2="62.6973"/><line style="stroke: #000000; stroke-width: 1.0;" x1="227" x2="413" y1="74.6973" y2="74.6973"/><line style="stroke: #000000; stroke-width: 1.0;" x1="413" x2="423" y1="74.6973" y2="64.6973"/><text fill="#000000" font-family="sans-serif" font-size="14" lengthAdjust="spacingAndGlyphs" textLength="98" x="248" y="89.8291">of different kind</text><line style="stroke: #000000; stroke-width: 1.0; stroke-dasharray: 1.0,2.0;" x1="227" x2="413" y1="96.7959" y2="96.7959"/><line style="stroke: #000000; stroke-width: 1.0; stroke-dasharray: 1.0,2.0;" x1="413" x2="423" y1="96.7959" y2="86.7959"/><text fill="#000000" font-family="sans-serif" font-size="14" lengthAdjust="spacingAndGlyphs" textLength="57" x="248" y="113.9277">and style</text><!--entity database--><path d="M11,205 C11,195 99,195 99,195 C99,195 187,195 187,205 L187,302.3945 C187,312.3945 99,312.3945 99,312.3945 C99,312.3945 11,312.3945 11,302.3945 L11,205 " fill="#FEFECE" filter="url(#f1x514zejlvy6c)" style="stroke: #000000; stroke-width: 1.5;"/><path d="M11,205 C11,215 99,215 99,215 C99,215 187,215 187,205 " fill="none" style="stroke: #000000; stroke-width: 1.5;"/><text fill="#000000" font-family="sans-serif" font-size="14" lengthAdjust="spacingAndGlyphs" textLength="53" x="21" y="232.1318">This is a</text><text fill="#000000" font-family="sans-serif" font-size="14" font-weight="bold" lengthAdjust="spacingAndGlyphs" textLength="67" x="78" y="232.1318">database</text><path d="M11,230.0986 C11,240.0986 99,240.0986 99,240.0986 C99,240.0986 187,240.0986 187,230.0986 " fill="none" style="stroke: #000000; stroke-width: 1.0;"/><text fill="#000000" font-family="sans-serif" font-size="14" lengthAdjust="spacingAndGlyphs" textLength="144" x="27" y="252.2305">You can use separator</text><path d="M11,254.1973 C11,264.1973 99,264.1973 99,264.1973 C99,264.1973 187,264.1973 187,254.1973 " fill="none" style="stroke: #000000; stroke-width: 1.0;"/><path d="M11,256.1973 C11,266.1973 99,266.1973 99,266.1973 C99,266.1973 187,266.1973 187,256.1973 " fill="none" style="stroke: #000000; stroke-width: 1.0;"/><text fill="#000000" font-family="sans-serif" font-size="14" lengthAdjust="spacingAndGlyphs" textLength="98" x="27" y="276.3291">of different kind</text><path d="M11,278.2959 C11,288.2959 99,288.2959 99,288.2959 C99,288.2959 187,288.2959 187,278.2959 " fill="none" style="stroke: #000000; stroke-width: 1.0; stroke-dasharray: 1.0,2.0;"/><text fill="#000000" font-family="sans-serif" font-size="14" lengthAdjust="spacingAndGlyphs" textLength="57" x="27" y="300.4277">and style</text><ellipse cx="312.9765" cy="253.3502" fill="#FEFECE" filter="url(#f1x514zejlvy6c)" rx="90.9765" ry="52.8502" style="stroke: #A80036; stroke-width: 1.5;"/><text fill="#000000" font-family="sans-serif" font-size="14" lengthAdjust="spacingAndGlyphs" textLength="53" x="254.4765" y="228.7164">This is a</text><text fill="#000000" font-family="sans-serif" font-size="14" font-weight="bold" lengthAdjust="spacingAndGlyphs" textLength="60" x="311.4765" y="228.7164">usecase</text><line style="stroke: #A80036; stroke-width: 1.0;" x1="230.997" x2="394.9559" y1="231.6832" y2="231.6832"/><text fill="#000000" font-family="sans-serif" font-size="14" lengthAdjust="spacingAndGlyphs" textLength="144" x="240.9765" y="248.815">You can use separator</text><line style="stroke: #A80036; stroke-width: 1.0;" x1="223.0963" x2="402.8566" y1="255.7818" y2="255.7818"/><line style="stroke: #A80036; stroke-width: 1.0;" x1="223.3204" x2="402.6325" y1="257.7818" y2="257.7818"/><text fill="#000000" font-family="sans-serif" font-size="14" lengthAdjust="spacingAndGlyphs" textLength="98" x="263.9765" y="272.9136">of different kind</text><line style="stroke: #A80036; stroke-width: 1.0; stroke-dasharray: 1.0,2.0;" x1="235.2932" x2="390.6597" y1="279.8804" y2="279.8804"/><text fill="#000000" font-family="sans-serif" font-size="14" lengthAdjust="spacingAndGlyphs" textLength="57" x="284.4765" y="297.0123">and style</text><!--link folder to node--><!--link folder to database--><!--link database to usecase--><!--
@startuml
folder folder [
This is a <b>folder
- - - -
You can use separator
====
of different kind
....
and style
]

node node [
This is a <b>node
- - - -
You can use separator
====
of different kind
....
and style
]

database database [
This is a <b>database
- - - -
You can use separator
====
of different kind
....
and style
]

usecase usecase [
This is a <b>usecase
- - - -
You can use separator
====
of different kind
....
and style
]

@enduml

PlantUML version 1.2018.09(Sat Jul 28 00:58:18 CST 2018)
(GPL source distribution)
Java Runtime: OpenJDK Runtime Environment
JVM: OpenJDK 64-Bit Server VM
Java Version: 1.8.0_161-b14
Operating System: Linux
OS Version: 3.10.0-327.22.2.el7.x86_64
Default Encoding: UTF-8
Language: en
Country: US
--></g></svg>