<?xml version="1.0" encoding="UTF-8" standalone="no"?><svg xmlns="http://www.w3.org/2000/svg" xmlns:xlink="http://www.w3.org/1999/xlink" contentScriptType="application/ecmascript" contentStyleType="text/css" height="120px" preserveAspectRatio="none" style="width:412px;height:120px;" version="1.1" viewBox="0 0 412 120" width="412px" zoomAndPan="magnify"><defs><filter height="300%" id="f12a9dgq7naqcw" width="300%" x="-1" y="-1"><feGaussianBlur result="blurOut" stdDeviation="2.0"/><feColorMatrix in="blurOut" result="blurOut2" type="matrix" values="0 0 0 0 0 0 0 0 0 0 0 0 0 0 0 0 0 0 .4 0"/><feOffset dx="4.0" dy="4.0" in="blurOut2" result="blurOut3"/><feBlend in="SourceGraphic" in2="blurOut3" mode="normal"/></filter></defs><g><!--cluster Foo1--><polygon fill="#FFFFFF" filter="url(#f12a9dgq7naqcw)" points="14,36,24,26,127,26,127,92,117,102,14,102,14,36" style="stroke: #000000; stroke-width: 1.5;"/><line style="stroke: #000000; stroke-width: 1.5;" x1="117" x2="126" y1="36" y2="27"/><line style="stroke: #000000; stroke-width: 1.5;" x1="14" x2="117" y1="36" y2="36"/><line style="stroke: #000000; stroke-width: 1.5;" x1="117" x2="117" y1="36" y2="102"/><text fill="#000000" font-family="sans-serif" font-size="14" font-weight="bold" lengthAdjust="spacingAndGlyphs" textLength="37" x="48" y="52.1318">Foo1</text><!--cluster Foo3--><path d="M138,33 C138,30 140,28 143,28 C146,28 148,30 148,33 C148,30 150,28 153,28 C156,28 158,30 158,33 C158,30 160,28 163,28 C166,28 168,30 168,33 C168,30 170,28 173,28 C176,28 178,30 178,33 C178,30 180,28 183,28 C186,28 188,30 188,33 C188,30 190,28 193,28 C196,28 198,30 198,33 C198,30 200,28 203,28 C206,28 208,30 208,33 C208,30 210,28 213,28 C216,28 218,30 218,33 C218,30 220,28 223,28 C226,28 228,30 228,33 C231,33 233,35 233,38 C233,41 231,43 228,43 C231,43 233,45 233,48 C233,51 231,53 228,53 C231,53 233,55 233,58 C233,61 231,63 228,63 C231,63 233,65 233,68 C233,71 231,73 228,73 C231,73 233,75 233,78 C233,81 231,83 228,83 C231,83 233,85 233,88 C233,91 231,93 228,93 C231,93 233,95 233,98 C233,101 231,103 228,103 C228,106 225,108 223,108 C220,108 218,106 218,103 C218,106 215,108 213,108 C210,108 208,106 208,103 C208,106 205,108 203,108 C200,108 198,106 198,103 C198,106 195,108 193,108 C190,108 188,106 188,103 C188,106 185,108 183,108 C180,108 178,106 178,103 C178,106 175,108 173,108 C170,108 168,106 168,103 C168,106 165,108 163,108 C160,108 158,106 158,103 C158,106 155,108 153,108 C150,108 148,106 148,103 C148,106 145,108 143,108 C140,108 138,106 138,103 C135,103 133,101 133,98 C133,95 135,93 138,93 C135,93 133,91 133,88 C133,85 135,83 138,83 C135,83 133,81 133,78 C133,75 135,73 138,73 C135,73 133,71 133,68 C133,65 135,63 138,63 C135,63 133,61 133,58 C133,55 135,53 138,53 C135,53 133,51 133,48 C133,45 135,43 138,43 C135,43 133,41 133,38 C133,35 135,33 138,33 " fill="#FFFFFF" filter="url(#f12a9dgq7naqcw)" style="stroke: #000000; stroke-width: 1.5;"/><text fill="#000000" font-family="sans-serif" font-size="14" font-weight="bold" lengthAdjust="spacingAndGlyphs" textLength="37" x="161.5" y="52.1318">Foo3</text><!--cluster Foo5--><path d="M243,26 C243,16 278,16 278,16 C278,16 313,16 313,26 L313,92 C313,102 278,102 278,102 C278,102 243,102 243,92 L243,26 " fill="#FFFFFF" filter="url(#f12a9dgq7naqcw)" style="stroke: #000000; stroke-width: 1.5;"/><path d="M243,26 C243,36 278,36 278,36 C278,36 313,36 313,26 " fill="none" style="stroke: #000000; stroke-width: 1.5;"/><text fill="#000000" font-family="sans-serif" font-size="14" font-weight="bold" lengthAdjust="spacingAndGlyphs" textLength="37" x="259.5" y="51.1318">Foo5</text><!--cluster Foo7--><rect fill="#FFFFFF" filter="url(#f12a9dgq7naqcw)" height="71" rx="35" ry="35" style="stroke: #000000; stroke-width: 1.5;" width="70" x="331" y="31"/><text fill="#000000" font-family="sans-serif" font-size="14" font-weight="bold" lengthAdjust="spacingAndGlyphs" textLength="37" x="347.5" y="51.1318">Foo7</text><!--entity Foo2--><path d="M41.5,65 C41.5,62 43.5,60 46.5,60 C49.5,60 51.5,62 51.5,65 C51.5,62 53.5,60 56.5,60 C59.5,60 61.5,62 61.5,65 C61.5,62 63.5,60 66.5,60 C69.5,60 71.5,62 71.5,65 C71.5,62 73.5,60 76.5,60 C79.5,60 81.5,62 81.5,65 C81.5,62 83.5,60 86.5,60 C89.5,60 91.5,62 91.5,65 C94.5,65 96.5,67 96.5,70 C96.5,73 94.5,75 91.5,75 C94.5,75 96.5,77 96.5,80 C96.5,83 94.5,85 91.5,85 C91.5,88 88.5,90 86.5,90 C83.5,90 81.5,88 81.5,85 C81.5,88 78.5,90 76.5,90 C73.5,90 71.5,88 71.5,85 C71.5,88 68.5,90 66.5,90 C63.5,90 61.5,88 61.5,85 C61.5,88 58.5,90 56.5,90 C53.5,90 51.5,88 51.5,85 C51.5,88 48.5,90 46.5,90 C43.5,90 41.5,88 41.5,85 C38.5,85 36.5,83 36.5,80 C36.5,77 38.5,75 41.5,75 C38.5,75 36.5,73 36.5,70 C36.5,67 38.5,65 41.5,65 " fill="#FEFECE" filter="url(#f12a9dgq7naqcw)" style="stroke: #000000; stroke-width: 1.5;"/><text fill="#000000" font-family="sans-serif" font-size="14" lengthAdjust="spacingAndGlyphs" textLength="33" x="48.5" y="81.1318">Foo2</text><!--entity Foo4--><rect fill="#FEFECE" filter="url(#f12a9dgq7naqcw)" height="46.0986" style="stroke: #000000; stroke-width: 1.5;" width="73" x="143.5" y="53"/><path d="M167.8333,54 L167.8333,58 L160.8333,65 L143.5,65 " fill="none" style="stroke: #000000; stroke-width: 1.5;"/><text fill="#000000" font-family="sans-serif" font-size="14" lengthAdjust="spacingAndGlyphs" textLength="33" x="158.5" y="86.1318">Foo4</text><!--entity Foo6--><rect fill="#FEFECE" filter="url(#f12a9dgq7naqcw)" height="36.0986" rx="35" ry="35" style="stroke: #000000; stroke-width: 1.5;" width="53" x="251.5" y="58"/><text fill="#000000" font-family="sans-serif" font-size="14" lengthAdjust="spacingAndGlyphs" textLength="33" x="261.5" y="81.1318">Foo6</text><!--entity Foo8--><rect fill="#FEFECE" filter="url(#f12a9dgq7naqcw)" height="36.0986" rx="35" ry="35" style="stroke: #000000; stroke-width: 1.5;" width="53" x="339.5" y="58"/><text fill="#000000" font-family="sans-serif" font-size="14" lengthAdjust="spacingAndGlyphs" textLength="33" x="349.5" y="81.1318">Foo8</text><!--
@startuml
node Foo1 {
 cloud Foo2 
}

cloud Foo3 {
  frame Foo4
}

database Foo5  {
  storage Foo6
}

storage Foo7 {
  storage Foo8
}
@enduml

PlantUML version 1.2018.09(Sat Jul 28 00:58:18 CST 2018)
(GPL source distribution)
Java Runtime: OpenJDK Runtime Environment
JVM: OpenJDK 64-Bit Server VM
Java Version: 1.8.0_161-b14
Operating System: Linux
OS Version: 3.10.0-327.22.2.el7.x86_64
Default Encoding: UTF-8
Language: en
Country: US
--></g></svg>