<?xml version="1.0" encoding="UTF-8" standalone="no"?><svg xmlns="http://www.w3.org/2000/svg" xmlns:xlink="http://www.w3.org/1999/xlink" contentScriptType="application/ecmascript" contentStyleType="text/css" height="157px" preserveAspectRatio="none" style="width:1040px;height:157px;" version="1.1" viewBox="0 0 1040 157" width="1040px" zoomAndPan="magnify"><defs><filter height="300%" id="f1r1qggiybqz64" width="300%" x="-1" y="-1"><feGaussianBlur result="blurOut" stdDeviation="2.0"/><feColorMatrix in="blurOut" result="blurOut2" type="matrix" values="0 0 0 0 0 0 0 0 0 0 0 0 0 0 0 0 0 0 .4 0"/><feOffset dx="4.0" dy="4.0" in="blurOut2" result="blurOut3"/><feBlend in="SourceGraphic" in2="blurOut3" mode="normal"/></filter></defs><g><!--entity artifact1--><rect fill="#FEFECE" filter="url(#f1r1qggiybqz64)" height="39.0986" style="stroke: #000000; stroke-width: 1.5;" width="81" x="470" y="8"/><polygon fill="#FEFECE" points="534,13,534,27,546,27,546,19,540,13,534,13" style="stroke: #000000; stroke-width: 1.5;"/><line style="stroke: #000000; stroke-width: 1.5;" x1="540" x2="540" y1="13" y2="19"/><line style="stroke: #000000; stroke-width: 1.5;" x1="546" x2="540" y1="19" y2="19"/><text fill="#000000" font-family="sans-serif" font-size="14" lengthAdjust="spacingAndGlyphs" textLength="51" x="480" y="34.1318">artifact1</text><!--entity artifact2--><rect fill="#FEFECE" filter="url(#f1r1qggiybqz64)" height="39.0986" style="stroke: #000000; stroke-width: 1.5;" width="81" x="6" y="107"/><polygon fill="#FEFECE" points="70,112,70,126,82,126,82,118,76,112,70,112" style="stroke: #000000; stroke-width: 1.5;"/><line style="stroke: #000000; stroke-width: 1.5;" x1="76" x2="76" y1="112" y2="118"/><line style="stroke: #000000; stroke-width: 1.5;" x1="82" x2="76" y1="118" y2="118"/><text fill="#000000" font-family="sans-serif" font-size="14" lengthAdjust="spacingAndGlyphs" textLength="51" x="16" y="133.1318">artifact2</text><!--entity artifact3--><rect fill="#FEFECE" filter="url(#f1r1qggiybqz64)" height="39.0986" style="stroke: #000000; stroke-width: 1.5;" width="81" x="122" y="107"/><polygon fill="#FEFECE" points="186,112,186,126,198,126,198,118,192,112,186,112" style="stroke: #000000; stroke-width: 1.5;"/><line style="stroke: #000000; stroke-width: 1.5;" x1="192" x2="192" y1="112" y2="118"/><line style="stroke: #000000; stroke-width: 1.5;" x1="198" x2="192" y1="118" y2="118"/><text fill="#000000" font-family="sans-serif" font-size="14" lengthAdjust="spacingAndGlyphs" textLength="51" x="132" y="133.1318">artifact3</text><!--entity artifact4--><rect fill="#FEFECE" filter="url(#f1r1qggiybqz64)" height="39.0986" style="stroke: #000000; stroke-width: 1.5;" width="81" x="238" y="107"/><polygon fill="#FEFECE" points="302,112,302,126,314,126,314,118,308,112,302,112" style="stroke: #000000; stroke-width: 1.5;"/><line style="stroke: #000000; stroke-width: 1.5;" x1="308" x2="308" y1="112" y2="118"/><line style="stroke: #000000; stroke-width: 1.5;" x1="314" x2="308" y1="118" y2="118"/><text fill="#000000" font-family="sans-serif" font-size="14" lengthAdjust="spacingAndGlyphs" textLength="51" x="248" y="133.1318">artifact4</text><!--entity artifact5--><rect fill="#FEFECE" filter="url(#f1r1qggiybqz64)" height="39.0986" style="stroke: #000000; stroke-width: 1.5;" width="81" x="354" y="107"/><polygon fill="#FEFECE" points="418,112,418,126,430,126,430,118,424,112,418,112" style="stroke: #000000; stroke-width: 1.5;"/><line style="stroke: #000000; stroke-width: 1.5;" x1="424" x2="424" y1="112" y2="118"/><line style="stroke: #000000; stroke-width: 1.5;" x1="430" x2="424" y1="118" y2="118"/><text fill="#000000" font-family="sans-serif" font-size="14" lengthAdjust="spacingAndGlyphs" textLength="51" x="364" y="133.1318">artifact5</text><!--entity artifact6--><rect fill="#FEFECE" filter="url(#f1r1qggiybqz64)" height="39.0986" style="stroke: #000000; stroke-width: 1.5;" width="81" x="470" y="107"/><polygon fill="#FEFECE" points="534,112,534,126,546,126,546,118,540,112,534,112" style="stroke: #000000; stroke-width: 1.5;"/><line style="stroke: #000000; stroke-width: 1.5;" x1="540" x2="540" y1="112" y2="118"/><line style="stroke: #000000; stroke-width: 1.5;" x1="546" x2="540" y1="118" y2="118"/><text fill="#000000" font-family="sans-serif" font-size="14" lengthAdjust="spacingAndGlyphs" textLength="51" x="480" y="133.1318">artifact6</text><!--entity artifact7--><rect fill="#FEFECE" filter="url(#f1r1qggiybqz64)" height="39.0986" style="stroke: #000000; stroke-width: 1.5;" width="81" x="586" y="107"/><polygon fill="#FEFECE" points="650,112,650,126,662,126,662,118,656,112,650,112" style="stroke: #000000; stroke-width: 1.5;"/><line style="stroke: #000000; stroke-width: 1.5;" x1="656" x2="656" y1="112" y2="118"/><line style="stroke: #000000; stroke-width: 1.5;" x1="662" x2="656" y1="118" y2="118"/><text fill="#000000" font-family="sans-serif" font-size="14" lengthAdjust="spacingAndGlyphs" textLength="51" x="596" y="133.1318">artifact7</text><!--entity artifact8--><rect fill="#FEFECE" filter="url(#f1r1qggiybqz64)" height="39.0986" style="stroke: #000000; stroke-width: 1.5;" width="81" x="702" y="107"/><polygon fill="#FEFECE" points="766,112,766,126,778,126,778,118,772,112,766,112" style="stroke: #000000; stroke-width: 1.5;"/><line style="stroke: #000000; stroke-width: 1.5;" x1="772" x2="772" y1="112" y2="118"/><line style="stroke: #000000; stroke-width: 1.5;" x1="778" x2="772" y1="118" y2="118"/><text fill="#000000" font-family="sans-serif" font-size="14" lengthAdjust="spacingAndGlyphs" textLength="51" x="712" y="133.1318">artifact8</text><!--entity artifact9--><rect fill="#FEFECE" filter="url(#f1r1qggiybqz64)" height="39.0986" style="stroke: #000000; stroke-width: 1.5;" width="81" x="818" y="107"/><polygon fill="#FEFECE" points="882,112,882,126,894,126,894,118,888,112,882,112" style="stroke: #000000; stroke-width: 1.5;"/><line style="stroke: #000000; stroke-width: 1.5;" x1="888" x2="888" y1="112" y2="118"/><line style="stroke: #000000; stroke-width: 1.5;" x1="894" x2="888" y1="118" y2="118"/><text fill="#000000" font-family="sans-serif" font-size="14" lengthAdjust="spacingAndGlyphs" textLength="51" x="828" y="133.1318">artifact9</text><!--entity artifact10--><rect fill="#FEFECE" filter="url(#f1r1qggiybqz64)" height="39.0986" style="stroke: #000000; stroke-width: 1.5;" width="89" x="934" y="107"/><polygon fill="#FEFECE" points="1006,112,1006,126,1018,126,1018,118,1012,112,1006,112" style="stroke: #000000; stroke-width: 1.5;"/><line style="stroke: #000000; stroke-width: 1.5;" x1="1012" x2="1012" y1="112" y2="118"/><line style="stroke: #000000; stroke-width: 1.5;" x1="1018" x2="1012" y1="118" y2="118"/><text fill="#000000" font-family="sans-serif" font-size="14" lengthAdjust="spacingAndGlyphs" textLength="59" x="944" y="133.1318">artifact10</text><!--link artifact1 to artifact2--><path d="M469.7626,33.6624 C396.1635,45.1966 236.4205,72.0686 104.5,107 C100.4404,108.075 96.2515,109.2829 92.0701,110.5571 " fill="none" id="artifact1-artifact2" style="stroke: #A80036; stroke-width: 1.0;"/><polygon fill="#A80036" points="87.1731,112.0794,96.9548,113.2274,91.9477,110.5951,94.58,105.588,87.1731,112.0794" style="stroke: #A80036; stroke-width: 1.0;"/><!--link artifact1 to artifact3--><path d="M469.9453,37.8407 C413.6827,52.363 308.8853,80.051 220.5,107 C218.9281,107.4793 217.3345,107.9718 215.7274,108.4743 " fill="none" id="artifact1-artifact3" style="stroke: #A80036; stroke-width: 1.0;"/><polygon fill="#A80036" points="203.2829,112.465,210.2178,114.4417,214.7097,108.8005,207.7748,106.8238,203.2829,112.465" style="stroke: #A80036; stroke-width: 1.0;"/><!--link artifact1 to artifact4--><path d="M469.8232,44.8578 C431.3471,61.2765 373.3924,86.0071 331.3531,103.9463 " fill="none" id="artifact1-artifact4" style="stroke: #A80036; stroke-width: 1.0;"/><polygon fill="#FFFFFF" points="319.1301,109.1622,326.2186,110.4863,330.1672,104.4523,323.0787,103.1282,319.1301,109.1622" style="stroke: #A80036; stroke-width: 1.0;"/><!--link artifact1 to artifact5--><path d="M487.5821,47.0592 C470.8205,61.3644 447.7973,81.0135 428.8425,97.1905 " fill="none" id="artifact1-artifact5" style="stroke: #A80036; stroke-width: 1.0;"/><ellipse cx="423.4555" cy="101.7881" fill="#FFFFFF" rx="8" ry="8" style="stroke: #A80036; stroke-width: 1.0;"/><line style="stroke: #A80036; stroke-width: 1.0;" x1="429.5406" x2="417.3703" y1="96.5947" y2="106.9814"/><line style="stroke: #A80036; stroke-width: 1.0;" x1="428.6488" x2="418.2621" y1="107.8732" y2="95.7029"/><!--link artifact1 to artifact6--><path d="M510.5,47.0592 C510.5,62.7881 510.5,84.9776 510.5,101.9087 " fill="none" id="artifact1-artifact6" style="stroke: #A80036; stroke-width: 1.0;"/><rect fill="#FFFFFF" height="10" style="stroke: #A80036; stroke-width: 1.5;" width="10" x="505.5" y="101.9814"/><!--link artifact1 to artifact7--><path d="M533.4179,47.0592 C551.7683,62.7203 577.6235,84.7864 597.4291,101.6895 " fill="none" id="artifact1-artifact7" style="stroke: #A80036; stroke-width: 1.0;"/><polygon fill="#A80036" points="603.6297,106.9814,599.4921,99.5061,595.5971,104.0699,603.6297,106.9814" style="stroke: #A80036; stroke-width: 1.0;"/><!--link artifact1 to artifact8--><path d="M551.1768,44.8578 C591.9698,62.2651 654.6577,89.0156 697.0602,107.1097 " fill="none" id="artifact1-artifact8" style="stroke: #A80036; stroke-width: 1.0;"/><ellipse cx="701.8699" cy="109.1622" fill="#FFFFFF" rx="6" ry="6" style="stroke: #A80036; stroke-width: 1.5;"/><!--link artifact1 to artifact9--><path d="M551.0547,37.8407 C603.9108,51.4837 699.6023,76.7464 798.5549,106.6311 " fill="none" id="artifact1-artifact9" style="stroke: #A80036; stroke-width: 1.0;"/><polygon fill="none" points="800.6229,99.9434,817.7171,112.465,796.5454,113.3365,800.6229,99.9434" style="stroke: #A80036; stroke-width: 1.0;"/><!--link artifact1 to artifact10--><path d="M551.1704,33.9207 C624.6631,45.8645 784.2432,73.364 916.5,107 C920.5872,108.0395 924.8025,109.1911 929.0213,110.3999 " fill="none" id="artifact1-artifact10" style="stroke: #A80036; stroke-width: 1.0;"/><ellipse cx="933.9681" cy="111.8419" fill="#FFFFFF" rx="6" ry="6" style="stroke: #A80036; stroke-width: 1.5;"/><path d="M929.1585,103.0745 A10,10 0 0 0 925.2007 116.6515" fill="#FFFFFF" style="stroke: #A80036; stroke-width: 1.5;"/><!--
@startuml

artifact artifact1
artifact artifact2
artifact artifact3
artifact artifact4
artifact artifact5
artifact artifact6
artifact artifact7
artifact artifact8
artifact artifact9
artifact artifact10
artifact1 - -> artifact2
artifact1 - -* artifact3
artifact1 - -o artifact4
artifact1 - -+ artifact5
artifact1 - -# artifact6
artifact1 - ->> artifact7
artifact1 - -0 artifact8
artifact1 - -^ artifact9
artifact1 - -(0 artifact10

@enduml

PlantUML version 1.2018.09(Sat Jul 28 00:58:18 CST 2018)
(GPL source distribution)
Java Runtime: OpenJDK Runtime Environment
JVM: OpenJDK 64-Bit Server VM
Java Version: 1.8.0_161-b14
Operating System: Linux
OS Version: 3.10.0-327.22.2.el7.x86_64
Default Encoding: UTF-8
Language: en
Country: US
--></g></svg>