<?xml version="1.0" encoding="UTF-8" standalone="no"?><svg xmlns="http://www.w3.org/2000/svg" xmlns:xlink="http://www.w3.org/1999/xlink" contentScriptType="application/ecmascript" contentStyleType="text/css" height="515px" preserveAspectRatio="none" style="width:532px;height:515px;" version="1.1" viewBox="0 0 532 515" width="532px" zoomAndPan="magnify"><defs><filter height="300%" id="fcu6pkbr9dxyb" width="300%" x="-1" y="-1"><feGaussianBlur result="blurOut" stdDeviation="2.0"/><feColorMatrix in="blurOut" result="blurOut2" type="matrix" values="0 0 0 0 0 0 0 0 0 0 0 0 0 0 0 0 0 0 .4 0"/><feOffset dx="4.0" dy="4.0" in="blurOut2" result="blurOut3"/><feBlend in="SourceGraphic" in2="blurOut3" mode="normal"/></filter></defs><g><!--entity actor--><ellipse cx="48" cy="18" fill="#FEFECE" filter="url(#fcu6pkbr9dxyb)" rx="8" ry="8" style="stroke: #A80036; stroke-width: 2.0;"/><path d="M48,26 L48,53 M35,34 L61,34 M48,53 L35,68 M48,53 L61,68 " fill="none" filter="url(#fcu6pkbr9dxyb)" style="stroke: #A80036; stroke-width: 2.0;"/><text fill="#000000" font-family="sans-serif" font-size="14" lengthAdjust="spacingAndGlyphs" textLength="32" x="32" y="88.1318">actor</text><!--entity agent--><rect fill="#FEFECE" filter="url(#fcu6pkbr9dxyb)" height="36.0986" style="stroke: #A80036; stroke-width: 1.5;" width="56" x="99" y="31.5"/><text fill="#000000" font-family="sans-serif" font-size="14" lengthAdjust="spacingAndGlyphs" textLength="36" x="109" y="54.6318">agent</text><!--entity artifact--><rect fill="#FEFECE" filter="url(#fcu6pkbr9dxyb)" height="39.0986" style="stroke: #000000; stroke-width: 1.5;" width="73" x="190.5" y="30"/><polygon fill="#FEFECE" points="246.5,35,246.5,49,258.5,49,258.5,41,252.5,35,246.5,35" style="stroke: #000000; stroke-width: 1.5;"/><line style="stroke: #000000; stroke-width: 1.5;" x1="252.5" x2="252.5" y1="35" y2="41"/><line style="stroke: #000000; stroke-width: 1.5;" x1="258.5" x2="252.5" y1="41" y2="41"/><text fill="#000000" font-family="sans-serif" font-size="14" lengthAdjust="spacingAndGlyphs" textLength="43" x="200.5" y="56.1318">artifact</text><!--entity boundary--><path d="M308.5,29.5 L308.5,53.5 M308.5,41.5 L325.5,41.5 " fill="none" filter="url(#fcu6pkbr9dxyb)" style="stroke: #A80036; stroke-width: 2.0;"/><ellipse cx="337.5" cy="41.5" fill="#FEFECE" filter="url(#fcu6pkbr9dxyb)" rx="12" ry="12" style="stroke: #A80036; stroke-width: 2.0;"/><text fill="#000000" font-family="sans-serif" font-size="14" lengthAdjust="spacingAndGlyphs" textLength="60" x="299" y="70.6318">boundary</text><!--entity card--><rect fill="#FEFECE" filter="url(#fcu6pkbr9dxyb)" height="22.0986" style="stroke: #000000; stroke-width: 1.5;" width="48" x="394" y="38.5"/><text fill="#000000" font-family="sans-serif" font-size="14" lengthAdjust="spacingAndGlyphs" textLength="28" x="404" y="54.6318">card</text><!--entity cloud--><path d="M24,164 C24,161 26,159 29,159 C32,159 34,161 34,164 C34,161 36,159 39,159 C42,159 44,161 44,164 C44,161 46,159 49,159 C52,159 54,161 54,164 C54,161 56,159 59,159 C62,159 64,161 64,164 C64,161 66,159 69,159 C72,159 74,161 74,164 C77,164 79,166 79,169 C79,172 77,174 74,174 C77,174 79,176 79,179 C79,182 77,184 74,184 C74,187 71,189 69,189 C66,189 64,187 64,184 C64,187 61,189 59,189 C56,189 54,187 54,184 C54,187 51,189 49,189 C46,189 44,187 44,184 C44,187 41,189 39,189 C36,189 34,187 34,184 C34,187 31,189 29,189 C26,189 24,187 24,184 C21,184 19,182 19,179 C19,176 21,174 24,174 C21,174 19,172 19,169 C19,166 21,164 24,164 " fill="#FEFECE" filter="url(#fcu6pkbr9dxyb)" style="stroke: #000000; stroke-width: 1.5;"/><text fill="#000000" font-family="sans-serif" font-size="14" lengthAdjust="spacingAndGlyphs" textLength="34" x="31" y="180.1318">cloud</text><!--entity component--><rect fill="#FEFECE" filter="url(#fcu6pkbr9dxyb)" height="36.0986" style="stroke: #A80036; stroke-width: 1.5;" width="90" x="110" y="157"/><rect fill="#FEFECE" height="5" style="stroke: #A80036; stroke-width: 1.5;" width="10" x="105" y="162"/><rect fill="#FEFECE" height="5" style="stroke: #A80036; stroke-width: 1.5;" width="10" x="105" y="183.0986"/><text fill="#000000" font-family="sans-serif" font-size="14" lengthAdjust="spacingAndGlyphs" textLength="70" x="120" y="180.1318">component</text><!--entity control--><ellipse cx="257" cy="167" fill="#FEFECE" filter="url(#fcu6pkbr9dxyb)" rx="12" ry="12" style="stroke: #A80036; stroke-width: 2.0;"/><polygon fill="#A80036" points="253,155,259,150,257,155,259,160,253,155" style="stroke: #A80036; stroke-width: 1.0;"/><text fill="#000000" font-family="sans-serif" font-size="14" lengthAdjust="spacingAndGlyphs" textLength="43" x="235.5" y="196.1318">control</text><!--entity database--><path d="M313.5,162.5 C313.5,152.5 353,152.5 353,152.5 C353,152.5 392.5,152.5 392.5,162.5 L392.5,187.5986 C392.5,197.5986 353,197.5986 353,197.5986 C353,197.5986 313.5,197.5986 313.5,187.5986 L313.5,162.5 " fill="#FEFECE" filter="url(#fcu6pkbr9dxyb)" style="stroke: #000000; stroke-width: 1.5;"/><path d="M313.5,162.5 C313.5,172.5 353,172.5 353,172.5 C353,172.5 392.5,172.5 392.5,162.5 " fill="none" style="stroke: #000000; stroke-width: 1.5;"/><text fill="#000000" font-family="sans-serif" font-size="14" lengthAdjust="spacingAndGlyphs" textLength="59" x="323.5" y="189.6318">database</text><!--entity entity--><ellipse cx="445" cy="167" fill="#FEFECE" filter="url(#fcu6pkbr9dxyb)" rx="12" ry="12" style="stroke: #A80036; stroke-width: 2.0;"/><line style="stroke: #A80036; stroke-width: 2.0;" x1="433" x2="457" y1="181" y2="181"/><text fill="#000000" font-family="sans-serif" font-size="14" lengthAdjust="spacingAndGlyphs" textLength="34" x="428" y="196.1318">entity</text><!--entity file--><polygon fill="#FEFECE" filter="url(#fcu6pkbr9dxyb)" points="29,270,29,306.0986,67,306.0986,67,280,57,270,29,270" style="stroke: #000000; stroke-width: 1.5;"/><path d="M57,270 L57,280 L67,280 " fill="#FEFECE" style="stroke: #000000; stroke-width: 1.5;"/><text fill="#000000" font-family="sans-serif" font-size="14" lengthAdjust="spacingAndGlyphs" textLength="18" x="39" y="293.1318">file</text><!--entity folder--><polygon fill="#FEFECE" filter="url(#fcu6pkbr9dxyb)" points="102,268.5,144,268.5,151,290.5986,168,290.5986,168,307.5986,102,307.5986,102,268.5" style="stroke: #000000; stroke-width: 1.5;"/><line style="stroke: #000000; stroke-width: 1.5;" x1="102" x2="151" y1="290.5986" y2="290.5986"/><text fill="#000000" font-family="sans-serif" font-size="14" lengthAdjust="spacingAndGlyphs" textLength="36" x="106" y="284.6318">folder</text><!--entity frame--><rect fill="#FEFECE" filter="url(#fcu6pkbr9dxyb)" height="46.0986" style="stroke: #000000; stroke-width: 1.5;" width="76" x="203" y="265"/><path d="M228.3333,266 L228.3333,270 L221.3333,277 L203,277 " fill="none" style="stroke: #000000; stroke-width: 1.5;"/><text fill="#000000" font-family="sans-serif" font-size="14" lengthAdjust="spacingAndGlyphs" textLength="36" x="218" y="298.1318">frame</text><!--entity interface--><ellipse cx="349" cy="288" fill="#FEFECE" filter="url(#fcu6pkbr9dxyb)" rx="8" ry="8" style="stroke: #A80036; stroke-width: 2.0;"/><text fill="#000000" font-family="sans-serif" font-size="14" lengthAdjust="spacingAndGlyphs" textLength="55" x="321.5" y="318.1318">interface</text><!--entity node--><polygon fill="#FEFECE" filter="url(#fcu6pkbr9dxyb)" points="419,275,429,265,491,265,491,301.0986,481,311.0986,419,311.0986,419,275" style="stroke: #000000; stroke-width: 1.5;"/><line style="stroke: #000000; stroke-width: 1.5;" x1="481" x2="490" y1="275" y2="266"/><line style="stroke: #000000; stroke-width: 1.5;" x1="419" x2="481" y1="275" y2="275"/><line style="stroke: #000000; stroke-width: 1.5;" x1="481" x2="481" y1="275" y2="311.0986"/><text fill="#000000" font-family="sans-serif" font-size="14" lengthAdjust="spacingAndGlyphs" textLength="32" x="434" y="298.1318">node</text><!--entity package--><polygon fill="#FEFECE" filter="url(#fcu6pkbr9dxyb)" points="6,377,66,377,73,399.0986,90,399.0986,90,416.0986,6,416.0986,6,377" style="stroke: #000000; stroke-width: 1.5;"/><line style="stroke: #000000; stroke-width: 1.5;" x1="6" x2="73" y1="399.0986" y2="399.0986"/><text fill="#000000" font-family="sans-serif" font-size="14" lengthAdjust="spacingAndGlyphs" textLength="54" x="10" y="393.1318">package</text><!--entity queue--><path d="M130,383.5 L180,383.5 C185,383.5 185,396.5493 185,396.5493 C185,396.5493 185,409.5986 180,409.5986 L130,409.5986 C125,409.5986 125,396.5493 125,396.5493 C125,396.5493 125,383.5 130,383.5 " fill="#FEFECE" filter="url(#fcu6pkbr9dxyb)" style="stroke: #A80036; stroke-width: 1.5;"/><path d="M180,383.5 C175,383.5 175,396.5493 175,396.5493 C175,409.5986 180,409.5986 180,409.5986 " fill="none" style="stroke: #A80036; stroke-width: 1.5;"/><text fill="#000000" font-family="sans-serif" font-size="14" lengthAdjust="spacingAndGlyphs" textLength="40" x="130" y="401.6318">queue</text><!--entity stack--><rect fill="#FEFECE" filter="url(#fcu6pkbr9dxyb)" height="36.0986" style="stroke: none; stroke-width: 1.5;" width="53" x="235.5" y="378.5"/><path d="M220.5,378.5 L235.5,378.5 L235.5,414.5986 L288.5,414.5986 L288.5,378.5 L303.5,378.5 " fill="none" style="stroke: #A80036; stroke-width: 1.5;"/><text fill="#000000" font-family="sans-serif" font-size="14" lengthAdjust="spacingAndGlyphs" textLength="33" x="245.5" y="401.6318">stack</text><!--entity rectangle--><rect fill="#FEFECE" filter="url(#fcu6pkbr9dxyb)" height="36.0986" style="stroke: #000000; stroke-width: 1.5;" width="79" x="338.5" y="378.5"/><text fill="#000000" font-family="sans-serif" font-size="14" lengthAdjust="spacingAndGlyphs" textLength="59" x="348.5" y="401.6318">rectangle</text><!--entity storage--><rect fill="#FEFECE" filter="url(#fcu6pkbr9dxyb)" height="36.0986" rx="35" ry="35" style="stroke: #000000; stroke-width: 1.5;" width="68" x="453" y="378.5"/><text fill="#000000" font-family="sans-serif" font-size="14" lengthAdjust="spacingAndGlyphs" textLength="48" x="463" y="401.6318">storage</text><ellipse cx="47.9767" cy="490.3835" fill="#FEFECE" filter="url(#fcu6pkbr9dxyb)" rx="40.4767" ry="14.3835" style="stroke: #A80036; stroke-width: 1.5;"/><text fill="#000000" font-family="sans-serif" font-size="14" lengthAdjust="spacingAndGlyphs" textLength="53" x="21.4767" y="494.9328">usecase</text><!--link actor to agent--><!--link agent to artifact--><!--link artifact to boundary--><!--link boundary to card--><!--link actor to cloud--><!--link cloud to component--><!--link component to control--><!--link control to database--><!--link database to entity--><!--link cloud to file--><!--link file to folder--><!--link folder to frame--><!--link frame to interface--><!--link interface to node--><!--link file to package--><!--link package to queue--><!--link queue to stack--><!--link stack to rectangle--><!--link rectangle to storage--><!--link package to usecase--><!--
@startuml
actor actor
agent agent
artifact artifact
boundary boundary
card card
cloud cloud
component component
control control
database database
entity entity
file file
folder folder
frame frame
interface  interface
node node
package package
queue queue
stack stack
rectangle rectangle
storage storage
usecase usecase
@enduml

PlantUML version 1.2018.09(Sat Jul 28 00:58:18 CST 2018)
(GPL source distribution)
Java Runtime: OpenJDK Runtime Environment
JVM: OpenJDK 64-Bit Server VM
Java Version: 1.8.0_161-b14
Operating System: Linux
OS Version: 3.10.0-327.22.2.el7.x86_64
Default Encoding: UTF-8
Language: en
Country: US
--></g></svg>