<?xml version="1.0" encoding="UTF-8" standalone="no"?><svg xmlns="http://www.w3.org/2000/svg" xmlns:xlink="http://www.w3.org/1999/xlink" contentScriptType="application/ecmascript" contentStyleType="text/css" height="148px" preserveAspectRatio="none" style="width:377px;height:148px;" version="1.1" viewBox="0 0 377 148" width="377px" zoomAndPan="magnify"><defs><filter height="300%" id="f9gfoi71jozg0" width="300%" x="-1" y="-1"><feGaussianBlur result="blurOut" stdDeviation="2.0"/><feColorMatrix in="blurOut" result="blurOut2" type="matrix" values="0 0 0 0 0 0 0 0 0 0 0 0 0 0 0 0 0 0 .4 0"/><feOffset dx="4.0" dy="4.0" in="blurOut2" result="blurOut3"/><feBlend in="SourceGraphic" in2="blurOut3" mode="normal"/></filter></defs><g><!--entity cloud1--><path d="M154,15 C154,12 156,10 159,10 C162,10 164,12 164,15 C164,12 166,10 169,10 C172,10 174,12 174,15 C174,12 176,10 179,10 C182,10 184,12 184,15 C184,12 186,10 189,10 C192,10 194,12 194,15 C194,12 196,10 199,10 C202,10 204,12 204,15 C204,12 206,10 209,10 C212,10 214,12 214,15 C217,15 219,17 219,20 C219,23 217,25 214,25 C217,25 219,27 219,30 C219,33 217,35 214,35 C214,38 211,40 209,40 C206,40 204,38 204,35 C204,38 201,40 199,40 C196,40 194,38 194,35 C194,38 191,40 189,40 C186,40 184,38 184,35 C184,38 181,40 179,40 C176,40 174,38 174,35 C174,38 171,40 169,40 C166,40 164,38 164,35 C164,38 161,40 159,40 C156,40 154,38 154,35 C151,35 149,33 149,30 C149,27 151,25 154,25 C151,25 149,23 149,20 C149,17 151,15 154,15 " fill="#FEFECE" filter="url(#f9gfoi71jozg0)" style="stroke: #000000; stroke-width: 1.5;"/><text fill="#000000" font-family="sans-serif" font-size="14" lengthAdjust="spacingAndGlyphs" textLength="42" x="161" y="31.1318">cloud1</text><!--entity cloud2--><path d="M9,111 C9,108 11,106 14,106 C17,106 19,108 19,111 C19,108 21,106 24,106 C27,106 29,108 29,111 C29,108 31,106 34,106 C37,106 39,108 39,111 C39,108 41,106 44,106 C47,106 49,108 49,111 C49,108 51,106 54,106 C57,106 59,108 59,111 C59,108 61,106 64,106 C67,106 69,108 69,111 C72,111 74,113 74,116 C74,119 72,121 69,121 C72,121 74,123 74,126 C74,129 72,131 69,131 C69,134 66,136 64,136 C61,136 59,134 59,131 C59,134 56,136 54,136 C51,136 49,134 49,131 C49,134 46,136 44,136 C41,136 39,134 39,131 C39,134 36,136 34,136 C31,136 29,134 29,131 C29,134 26,136 24,136 C21,136 19,134 19,131 C19,134 16,136 14,136 C11,136 9,134 9,131 C6,131 4,129 4,126 C4,123 6,121 9,121 C6,121 4,119 4,116 C4,113 6,111 9,111 " fill="#FEFECE" filter="url(#f9gfoi71jozg0)" style="stroke: #000000; stroke-width: 1.5;"/><text fill="#000000" font-family="sans-serif" font-size="14" lengthAdjust="spacingAndGlyphs" textLength="42" x="16" y="127.1318">cloud2</text><!--entity cloud3--><path d="M106,111 C106,108 108,106 111,106 C114,106 116,108 116,111 C116,108 118,106 121,106 C124,106 126,108 126,111 C126,108 128,106 131,106 C134,106 136,108 136,111 C136,108 138,106 141,106 C144,106 146,108 146,111 C146,108 148,106 151,106 C154,106 156,108 156,111 C156,108 158,106 161,106 C164,106 166,108 166,111 C169,111 171,113 171,116 C171,119 169,121 166,121 C169,121 171,123 171,126 C171,129 169,131 166,131 C166,134 163,136 161,136 C158,136 156,134 156,131 C156,134 153,136 151,136 C148,136 146,134 146,131 C146,134 143,136 141,136 C138,136 136,134 136,131 C136,134 133,136 131,136 C128,136 126,134 126,131 C126,134 123,136 121,136 C118,136 116,134 116,131 C116,134 113,136 111,136 C108,136 106,134 106,131 C103,131 101,129 101,126 C101,123 103,121 106,121 C103,121 101,119 101,116 C101,113 103,111 106,111 " fill="#FEFECE" filter="url(#f9gfoi71jozg0)" style="stroke: #000000; stroke-width: 1.5;"/><text fill="#000000" font-family="sans-serif" font-size="14" lengthAdjust="spacingAndGlyphs" textLength="42" x="113" y="127.1318">cloud3</text><!--entity cloud4--><path d="M203,111 C203,108 205,106 208,106 C211,106 213,108 213,111 C213,108 215,106 218,106 C221,106 223,108 223,111 C223,108 225,106 228,106 C231,106 233,108 233,111 C233,108 235,106 238,106 C241,106 243,108 243,111 C243,108 245,106 248,106 C251,106 253,108 253,111 C253,108 255,106 258,106 C261,106 263,108 263,111 C266,111 268,113 268,116 C268,119 266,121 263,121 C266,121 268,123 268,126 C268,129 266,131 263,131 C263,134 260,136 258,136 C255,136 253,134 253,131 C253,134 250,136 248,136 C245,136 243,134 243,131 C243,134 240,136 238,136 C235,136 233,134 233,131 C233,134 230,136 228,136 C225,136 223,134 223,131 C223,134 220,136 218,136 C215,136 213,134 213,131 C213,134 210,136 208,136 C205,136 203,134 203,131 C200,131 198,129 198,126 C198,123 200,121 203,121 C200,121 198,119 198,116 C198,113 200,111 203,111 " fill="#FEFECE" filter="url(#f9gfoi71jozg0)" style="stroke: #000000; stroke-width: 1.5;"/><text fill="#000000" font-family="sans-serif" font-size="14" lengthAdjust="spacingAndGlyphs" textLength="42" x="210" y="127.1318">cloud4</text><!--entity cloud5--><path d="M300,111 C300,108 302,106 305,106 C308,106 310,108 310,111 C310,108 312,106 315,106 C318,106 320,108 320,111 C320,108 322,106 325,106 C328,106 330,108 330,111 C330,108 332,106 335,106 C338,106 340,108 340,111 C340,108 342,106 345,106 C348,106 350,108 350,111 C350,108 352,106 355,106 C358,106 360,108 360,111 C363,111 365,113 365,116 C365,119 363,121 360,121 C363,121 365,123 365,126 C365,129 363,131 360,131 C360,134 357,136 355,136 C352,136 350,134 350,131 C350,134 347,136 345,136 C342,136 340,134 340,131 C340,134 337,136 335,136 C332,136 330,134 330,131 C330,134 327,136 325,136 C322,136 320,134 320,131 C320,134 317,136 315,136 C312,136 310,134 310,131 C310,134 307,136 305,136 C302,136 300,134 300,131 C297,131 295,129 295,126 C295,123 297,121 300,121 C297,121 295,119 295,116 C295,113 297,111 300,111 " fill="#FEFECE" filter="url(#f9gfoi71jozg0)" style="stroke: #000000; stroke-width: 1.5;"/><text fill="#000000" font-family="sans-serif" font-size="14" lengthAdjust="spacingAndGlyphs" textLength="42" x="307" y="127.1318">cloud5</text><!--link cloud1 to cloud2--><path d="M154.7266,44.0569 C128.967,61.1115 90.5245,86.5631 64.6441,103.6977 " fill="none" id="cloud1-cloud2" style="stroke: #A80036; stroke-width: 1.0;"/><ellipse cx="109.7307" cy="73.8473" fill="#FFFFFF" rx="6" ry="6" style="stroke: #A80036; stroke-width: 1.5;"/><!--link cloud1 to cloud3--><path d="M172.9716,44.0569 C164.4442,61.1115 151.7185,86.5631 143.1511,103.6977 " fill="none" id="cloud1-cloud3" style="stroke: #A80036; stroke-width: 1.0;"/><path d="M148.5895,77.0096 A10,10 0 0 0 161.2386 83.3341" fill="#FFFFFF" style="stroke: #A80036; stroke-width: 1.5;"/><ellipse cx="158.0764" cy="73.8473" fill="#FFFFFF" rx="6" ry="6" style="stroke: #A80036; stroke-width: 1.5;"/><!--link cloud1 to cloud4--><path d="M191.2165,44.0569 C199.9215,61.1115 212.9124,86.5631 221.6582,103.6977 " fill="none" id="cloud1-cloud4" style="stroke: #A80036; stroke-width: 1.0;"/><path d="M209.5055,64.3346 A10,10 0 0 0 196.9093 70.7639" fill="#FFFFFF" style="stroke: #A80036; stroke-width: 1.5;"/><ellipse cx="206.4221" cy="73.8473" fill="#FFFFFF" rx="6" ry="6" style="stroke: #A80036; stroke-width: 1.5;"/><!--link cloud1 to cloud5--><path d="M209.4615,44.0569 C235.3988,61.1115 274.1063,86.5631 300.1653,103.6977 " fill="none" id="cloud1-cloud5" style="stroke: #A80036; stroke-width: 1.0;"/><ellipse cx="254.7678" cy="73.8473" fill="#FFFFFF" rx="10" ry="10" style="stroke: #FFFFFF; stroke-width: 1.0;"/><path d="M256.7911,83.6405 A10,10 0 0 0 264.5609 71.8239" fill="#FFFFFF" style="stroke: #A80036; stroke-width: 1.5;"/><path d="M252.7444,64.0541 A10,10 0 0 0 244.9746 75.8707" fill="#FFFFFF" style="stroke: #A80036; stroke-width: 1.5;"/><ellipse cx="254.7678" cy="73.8473" fill="#FFFFFF" rx="6" ry="6" style="stroke: #A80036; stroke-width: 1.5;"/><!--
@startuml

cloud cloud1
cloud cloud2
cloud cloud3
cloud cloud4
cloud cloud5
cloud1 -0- cloud2
cloud1 -0)- cloud3
cloud1 -(0- cloud4
cloud1 -(0)- cloud5

@enduml

PlantUML version 1.2018.09(Sat Jul 28 00:58:18 CST 2018)
(GPL source distribution)
Java Runtime: OpenJDK Runtime Environment
JVM: OpenJDK 64-Bit Server VM
Java Version: 1.8.0_161-b14
Operating System: Linux
OS Version: 3.10.0-327.22.2.el7.x86_64
Default Encoding: UTF-8
Language: en
Country: US
--></g></svg>