<svg height="1394.1484375" version="1.1" width="694.5" xmlns="http://www.w3.org/2000/svg" xmlns:xlink="http://www.w3.org/1999/xlink" style="overflow: hidden; position: relative;" viewBox="0 0 694.5 1394.1484375" preserveAspectRatio="xMidYMid meet"><desc style="-webkit-tap-highlight-color: rgba(0, 0, 0, 0);">Created with Raphaël 2.2.0</desc><defs style="-webkit-tap-highlight-color: rgba(0, 0, 0, 0);"><path stroke-linecap="round" d="M5,0 0,2.5 5,5z" id="raphael-marker-block" style="-webkit-tap-highlight-color: rgba(0, 0, 0, 0);"></path><marker id="raphael-marker-endblock33-obj15ay0" markerHeight="3" markerWidth="3" orient="auto" refX="1.5" refY="1.5" style="-webkit-tap-highlight-color: rgba(0, 0, 0, 0);"><use xlink:href="#raphael-marker-block" transform="rotate(180 1.5 1.5) scale(0.6,0.6)" stroke-width="1.6667" fill="Red" stroke="none" style="-webkit-tap-highlight-color: rgba(0, 0, 0, 0);"></use></marker><marker id="raphael-marker-endblock33-objv1vlc" markerHeight="3" markerWidth="3" orient="auto" refX="1.5" refY="1.5" style="-webkit-tap-highlight-color: rgba(0, 0, 0, 0);"><use xlink:href="#raphael-marker-block" transform="rotate(180 1.5 1.5) scale(0.6,0.6)" stroke-width="1.6667" fill="Red" stroke="none" style="-webkit-tap-highlight-color: rgba(0, 0, 0, 0);"></use></marker><marker id="raphael-marker-endblock33-obj19rhv" markerHeight="3" markerWidth="3" orient="auto" refX="1.5" refY="1.5" style="-webkit-tap-highlight-color: rgba(0, 0, 0, 0);"><use xlink:href="#raphael-marker-block" transform="rotate(180 1.5 1.5) scale(0.6,0.6)" stroke-width="1.6667" fill="Red" stroke="none" style="-webkit-tap-highlight-color: rgba(0, 0, 0, 0);"></use></marker><marker id="raphael-marker-endblock33-objok14b" markerHeight="3" markerWidth="3" orient="auto" refX="1.5" refY="1.5" style="-webkit-tap-highlight-color: rgba(0, 0, 0, 0);"><use xlink:href="#raphael-marker-block" transform="rotate(180 1.5 1.5) scale(0.6,0.6)" stroke-width="1.6667" fill="Red" stroke="none" style="-webkit-tap-highlight-color: rgba(0, 0, 0, 0);"></use></marker><marker id="raphael-marker-endblock33-obj7nf7o" markerHeight="3" markerWidth="3" orient="auto" refX="1.5" refY="1.5" style="-webkit-tap-highlight-color: rgba(0, 0, 0, 0);"><use xlink:href="#raphael-marker-block" transform="rotate(180 1.5 1.5) scale(0.6,0.6)" stroke-width="1.6667" fill="black" stroke="none" style="-webkit-tap-highlight-color: rgba(0, 0, 0, 0);"></use></marker><marker id="raphael-marker-endblock33-obj16jk4" markerHeight="3" markerWidth="3" orient="auto" refX="1.5" refY="1.5" style="-webkit-tap-highlight-color: rgba(0, 0, 0, 0);"><use xlink:href="#raphael-marker-block" transform="rotate(180 1.5 1.5) scale(0.6,0.6)" stroke-width="1.6667" fill="Red" stroke="none" style="-webkit-tap-highlight-color: rgba(0, 0, 0, 0);"></use></marker><marker id="raphael-marker-endblock33-obju9z5w" markerHeight="3" markerWidth="3" orient="auto" refX="1.5" refY="1.5" style="-webkit-tap-highlight-color: rgba(0, 0, 0, 0);"><use xlink:href="#raphael-marker-block" transform="rotate(180 1.5 1.5) scale(0.6,0.6)" stroke-width="1.6667" fill="Red" stroke="none" style="-webkit-tap-highlight-color: rgba(0, 0, 0, 0);"></use></marker><marker id="raphael-marker-endblock33-objhqhyf" markerHeight="3" markerWidth="3" orient="auto" refX="1.5" refY="1.5" style="-webkit-tap-highlight-color: rgba(0, 0, 0, 0);"><use xlink:href="#raphael-marker-block" transform="rotate(180 1.5 1.5) scale(0.6,0.6)" stroke-width="1.6667" fill="Red" stroke="none" style="-webkit-tap-highlight-color: rgba(0, 0, 0, 0);"></use></marker><marker id="raphael-marker-endblock33-objux7vp" markerHeight="3" markerWidth="3" orient="auto" refX="1.5" refY="1.5" style="-webkit-tap-highlight-color: rgba(0, 0, 0, 0);"><use xlink:href="#raphael-marker-block" transform="rotate(180 1.5 1.5) scale(0.6,0.6)" stroke-width="1.6667" fill="black" stroke="none" style="-webkit-tap-highlight-color: rgba(0, 0, 0, 0);"></use></marker><marker id="raphael-marker-endblock33-obj69y87" markerHeight="3" markerWidth="3" orient="auto" refX="1.5" refY="1.5" style="-webkit-tap-highlight-color: rgba(0, 0, 0, 0);"><use xlink:href="#raphael-marker-block" transform="rotate(180 1.5 1.5) scale(0.6,0.6)" stroke-width="1.6667" fill="Red" stroke="none" style="-webkit-tap-highlight-color: rgba(0, 0, 0, 0);"></use></marker><marker id="raphael-marker-endblock33-obj3znco" markerHeight="3" markerWidth="3" orient="auto" refX="1.5" refY="1.5" style="-webkit-tap-highlight-color: rgba(0, 0, 0, 0);"><use xlink:href="#raphael-marker-block" transform="rotate(180 1.5 1.5) scale(0.6,0.6)" stroke-width="1.6667" fill="Red" stroke="none" style="-webkit-tap-highlight-color: rgba(0, 0, 0, 0);"></use></marker><path stroke-linecap="round" d="M5,0 0,2.5 5,5 3.5,3 3.5,2z" id="raphael-marker-classic" style="-webkit-tap-highlight-color: rgba(0, 0, 0, 0);"></path><marker id="raphael-marker-endclassic55-obj6gzis" markerHeight="5" markerWidth="5" orient="auto" refX="2.5" refY="2.5" style="-webkit-tap-highlight-color: rgba(0, 0, 0, 0);"><use xlink:href="#raphael-marker-classic" transform="rotate(180 2.5 2.5) scale(1,1)" stroke-width="1.0000" fill="Red" stroke="none" style="-webkit-tap-highlight-color: rgba(0, 0, 0, 0);"></use></marker><marker id="raphael-marker-endblock33-obj9l732" markerHeight="3" markerWidth="3" orient="auto" refX="1.5" refY="1.5" style="-webkit-tap-highlight-color: rgba(0, 0, 0, 0);"><use xlink:href="#raphael-marker-block" transform="rotate(180 1.5 1.5) scale(0.6,0.6)" stroke-width="1.6667" fill="black" stroke="none" style="-webkit-tap-highlight-color: rgba(0, 0, 0, 0);"></use></marker><marker id="raphael-marker-endblock33-obj83arg" markerHeight="3" markerWidth="3" orient="auto" refX="1.5" refY="1.5" style="-webkit-tap-highlight-color: rgba(0, 0, 0, 0);"><use xlink:href="#raphael-marker-block" transform="rotate(180 1.5 1.5) scale(0.6,0.6)" stroke-width="1.6667" fill="black" stroke="none" style="-webkit-tap-highlight-color: rgba(0, 0, 0, 0);"></use></marker><marker id="raphael-marker-endblock33-objv08v1" markerHeight="3" markerWidth="3" orient="auto" refX="1.5" refY="1.5" style="-webkit-tap-highlight-color: rgba(0, 0, 0, 0);"><use xlink:href="#raphael-marker-block" transform="rotate(180 1.5 1.5) scale(0.6,0.6)" stroke-width="1.6667" fill="black" stroke="none" style="-webkit-tap-highlight-color: rgba(0, 0, 0, 0);"></use></marker><marker id="raphael-marker-endblock33-obj9k6bz" markerHeight="3" markerWidth="3" orient="auto" refX="1.5" refY="1.5" style="-webkit-tap-highlight-color: rgba(0, 0, 0, 0);"><use xlink:href="#raphael-marker-block" transform="rotate(180 1.5 1.5) scale(0.6,0.6)" stroke-width="1.6667" fill="black" stroke="none" style="-webkit-tap-highlight-color: rgba(0, 0, 0, 0);"></use></marker></defs><rect x="0" y="0" width="105" height="52.796875" rx="20" ry="20" fill="#ffffff" stroke="#000000" style="-webkit-tap-highlight-color: rgba(0, 0, 0, 0);" stroke-width="3" class="flowchart" id="st" transform="matrix(1,0,0,1,54.75,30.2266)"></rect><text x="10" y="26.3984375" text-anchor="start" font-family="&quot;Arial&quot;" font-size="14px" stroke="none" fill="#000000" style="-webkit-tap-highlight-color: rgba(0, 0, 0, 0); text-anchor: start; font-family: Arial; font-size: 14px;" id="stt" class="flowchartt" transform="matrix(1,0,0,1,54.75,30.2266)" stroke-width="1"><tspan dy="-3.390625" style="-webkit-tap-highlight-color: rgba(0, 0, 0, 0);">Improve your</tspan><tspan dy="16.8" x="10" style="-webkit-tap-highlight-color: rgba(0, 0, 0, 0);">l10n process!</tspan></text><a xlink:href="https://locize.com" xlink:show="new" style="-webkit-tap-highlight-color: rgba(0, 0, 0, 0);"><rect x="0" y="0" width="126" height="36" rx="0" ry="0" fill="#ffffff" stroke="#000000" style="-webkit-tap-highlight-color: rgba(0, 0, 0, 0);" stroke-width="3" class="flowchart" id="op1" transform="matrix(1,0,0,1,44.25,171.6484)"></rect></a><a xlink:href="https://locize.com" xlink:show="new" style="-webkit-tap-highlight-color: rgba(0, 0, 0, 0);"><text x="10" y="18" text-anchor="start" font-family="&quot;Arial&quot;" font-size="14px" stroke="none" fill="#000000" style="-webkit-tap-highlight-color: rgba(0, 0, 0, 0); text-anchor: start; font-family: Arial; font-size: 14px;" id="op1t" class="flowchartt" transform="matrix(1,0,0,1,44.25,171.6484)" stroke-width="1"><tspan dy="5" style="-webkit-tap-highlight-color: rgba(0, 0, 0, 0);">Go to locize.com</tspan></text></a><rect x="0" y="0" width="193" height="36" rx="0" ry="0" fill="#ffffff" stroke="#000000" style="-webkit-tap-highlight-color: rgba(0, 0, 0, 0);" stroke-width="3" class="flowchart" id="sub1" transform="matrix(1,0,0,1,10.75,296.2734)"></rect><rect x="10" y="0" width="173" height="36" rx="0" ry="0" fill="#ffffff" stroke="#000000" style="-webkit-tap-highlight-color: rgba(0, 0, 0, 0);" stroke-width="3" id="sub1i" transform="matrix(1,0,0,1,10.75,296.2734)"></rect><text x="20" y="18" text-anchor="start" font-family="&quot;Arial&quot;" font-size="14px" stroke="none" fill="#000000" style="-webkit-tap-highlight-color: rgba(0, 0, 0, 0); text-anchor: start; font-family: Arial; font-size: 14px;" id="sub1t" class="flowchartt" transform="matrix(1,0,0,1,10.75,296.2734)" stroke-width="1"><tspan dy="5" style="-webkit-tap-highlight-color: rgba(0, 0, 0, 0);">Read the awesomeness</tspan></text><path fill="#ffffff" stroke="#000000" d="M48.375,24.1875L0,48.375L96.75,96.75L193.5,48.375L96.75,0L0,48.375" stroke-width="3" id="cond" class="flowchart" style="-webkit-tap-highlight-color: rgba(0, 0, 0, 0);" transform="matrix(1,0,0,1,10.5,390.5234)"></path><text x="53.375" y="48.375" text-anchor="start" font-family="&quot;Arial&quot;" font-size="14px" stroke="none" fill="#000000" style="-webkit-tap-highlight-color: rgba(0, 0, 0, 0); text-anchor: start; font-family: Arial; font-size: 14px;" id="condt" class="flowchartt" transform="matrix(1,0,0,1,10.5,390.5234)" stroke-width="1"><tspan dy="-3.3984375" style="-webkit-tap-highlight-color: rgba(0, 0, 0, 0);">Interested to</tspan><tspan dy="16.8" x="53.375" style="-webkit-tap-highlight-color: rgba(0, 0, 0, 0);">getting started?</tspan></text><a xlink:href="https://www.locize.io/register" xlink:show="new" style="-webkit-tap-highlight-color: rgba(0, 0, 0, 0);"><path fill="#ffffff" stroke="#000000" d="M10,18L0,36L93,36L113,0L20,0L10,18" stroke-width="3" id="io" class="flowchart" style="-webkit-tap-highlight-color: rgba(0, 0, 0, 0);" transform="matrix(1,0,0,1,50.75,575.8984)"></path></a><a xlink:href="https://www.locize.io/register" xlink:show="new" style="-webkit-tap-highlight-color: rgba(0, 0, 0, 0);"><text x="30" y="18" text-anchor="start" font-family="&quot;Arial&quot;" font-size="14px" stroke="none" fill="#000000" style="-webkit-tap-highlight-color: rgba(0, 0, 0, 0); text-anchor: start; font-family: Arial; font-size: 14px;" id="iot" class="flowchartt" transform="matrix(1,0,0,1,50.75,575.8984)" stroke-width="1"><tspan dy="5" style="-webkit-tap-highlight-color: rgba(0, 0, 0, 0);">Register</tspan></text></a><a xlink:href="https://www.locize.io/login" xlink:show="new" style="-webkit-tap-highlight-color: rgba(0, 0, 0, 0);"><rect x="0" y="0" width="55" height="36" rx="0" ry="0" fill="#ffffff" stroke="#000000" style="-webkit-tap-highlight-color: rgba(0, 0, 0, 0);" stroke-width="3" class="flowchart" id="op2" transform="matrix(1,0,0,1,79.75,700.5234)"></rect></a><a xlink:href="https://www.locize.io/login" xlink:show="new" style="-webkit-tap-highlight-color: rgba(0, 0, 0, 0);"><text x="10" y="18" text-anchor="start" font-family="&quot;Arial&quot;" font-size="14px" stroke="none" fill="#000000" style="-webkit-tap-highlight-color: rgba(0, 0, 0, 0); text-anchor: start; font-family: Arial; font-size: 14px;" id="op2t" class="flowchartt" transform="matrix(1,0,0,1,79.75,700.5234)" stroke-width="1"><tspan dy="5" style="-webkit-tap-highlight-color: rgba(0, 0, 0, 0);">Login</tspan></text></a><path fill="#ffffff" stroke="#000000" d="M49.5,24.75L0,49.5L99,99L198,49.5L99,0L0,49.5" stroke-width="3" id="cond2" class="flowchart" style="-webkit-tap-highlight-color: rgba(0, 0, 0, 0);" transform="matrix(1,0,0,1,8.25,793.6484)"></path><text x="54.5" y="49.5" text-anchor="start" font-family="&quot;Arial&quot;" font-size="14px" stroke="none" fill="#000000" style="-webkit-tap-highlight-color: rgba(0, 0, 0, 0); text-anchor: start; font-family: Arial; font-size: 14px;" id="cond2t" class="flowchartt" transform="matrix(1,0,0,1,8.25,793.6484)" stroke-width="1"><tspan dy="5" style="-webkit-tap-highlight-color: rgba(0, 0, 0, 0);">valid password?</tspan></text><rect x="0" y="0" width="182" height="36" rx="0" ry="0" fill="#ffffff" stroke="#000000" style="-webkit-tap-highlight-color: rgba(0, 0, 0, 0);" stroke-width="3" class="flowchart" id="sub3" transform="matrix(1,0,0,1,16.25,981.2734)"></rect><rect x="10" y="0" width="162" height="36" rx="0" ry="0" fill="#ffffff" stroke="#000000" style="-webkit-tap-highlight-color: rgba(0, 0, 0, 0);" stroke-width="3" id="sub3i" transform="matrix(1,0,0,1,16.25,981.2734)"></rect><text x="20" y="18" text-anchor="start" font-family="&quot;Arial&quot;" font-size="14px" stroke="none" fill="#000000" style="-webkit-tap-highlight-color: rgba(0, 0, 0, 0); text-anchor: start; font-family: Arial; font-size: 14px;" id="sub3t" class="flowchartt" transform="matrix(1,0,0,1,16.25,981.2734)" stroke-width="1"><tspan dy="5" style="-webkit-tap-highlight-color: rgba(0, 0, 0, 0);">Create a demo project</tspan></text><rect x="0" y="0" width="177" height="36" rx="0" ry="0" fill="#ffffff" stroke="#000000" style="-webkit-tap-highlight-color: rgba(0, 0, 0, 0);" stroke-width="3" class="flowchart" id="sub4" transform="matrix(1,0,0,1,18.75,1105.8984)"></rect><rect x="10" y="0" width="157" height="36" rx="0" ry="0" fill="#ffffff" stroke="#000000" style="-webkit-tap-highlight-color: rgba(0, 0, 0, 0);" stroke-width="3" id="sub4i" transform="matrix(1,0,0,1,18.75,1105.8984)"></rect><text x="20" y="18" text-anchor="start" font-family="&quot;Arial&quot;" font-size="14px" stroke="none" fill="#000000" style="-webkit-tap-highlight-color: rgba(0, 0, 0, 0); text-anchor: start; font-family: Arial; font-size: 14px;" id="sub4t" class="flowchartt" transform="matrix(1,0,0,1,18.75,1105.8984)" stroke-width="1"><tspan dy="5" style="-webkit-tap-highlight-color: rgba(0, 0, 0, 0);">Start your real project</tspan></text><path fill="#ffffff" stroke="#000000" d="M10,18L0,36L103,36L123,0L20,0L10,18" stroke-width="3" id="io2" class="flowchart" style="-webkit-tap-highlight-color: rgba(0, 0, 0, 0);" transform="matrix(1,0,0,1,45.75,1230.5234)"></path><text x="30" y="18" text-anchor="start" font-family="&quot;Arial&quot;" font-size="14px" stroke="none" fill="#000000" style="-webkit-tap-highlight-color: rgba(0, 0, 0, 0); text-anchor: start; font-family: Arial; font-size: 14px;" id="io2t" class="flowchartt" transform="matrix(1,0,0,1,45.75,1230.5234)" stroke-width="1"><tspan dy="5" style="-webkit-tap-highlight-color: rgba(0, 0, 0, 0);">Subscribe</tspan></text><a xlink:href="https://youtu.be/YQryHo1iHb8" xlink:show="new" style="-webkit-tap-highlight-color: rgba(0, 0, 0, 0);"><rect x="0" y="0" width="156" height="36" rx="20" ry="20" fill="#ffffff" stroke="#000000" style="-webkit-tap-highlight-color: rgba(0, 0, 0, 0);" stroke-width="3" class="flowchart" id="e" transform="matrix(1,0,0,1,29.25,1355.1484)"></rect></a><a xlink:href="https://youtu.be/YQryHo1iHb8" xlink:show="new" style="-webkit-tap-highlight-color: rgba(0, 0, 0, 0);"><text x="10" y="18" text-anchor="start" font-family="&quot;Arial&quot;" font-size="14px" stroke="none" fill="#000000" style="-webkit-tap-highlight-color: rgba(0, 0, 0, 0); text-anchor: start; font-family: Arial; font-size: 14px;" id="et" class="flowchartt" transform="matrix(1,0,0,1,29.25,1355.1484)" stroke-width="1"><tspan dy="5" style="-webkit-tap-highlight-color: rgba(0, 0, 0, 0);">Continue to have fun!</tspan></text></a><path fill="#ffffff" stroke="#000000" d="M50.625,25.3125L0,50.625L101.25,101.25L202.5,50.625L101.25,0L0,50.625" stroke-width="3" id="cond3" class="flowchart" style="-webkit-tap-highlight-color: rgba(0, 0, 0, 0);" transform="matrix(1,0,0,1,262.25,792.5234)"></path><text x="55.625" y="50.625" text-anchor="start" font-family="&quot;Arial&quot;" font-size="14px" stroke="none" fill="#000000" style="-webkit-tap-highlight-color: rgba(0, 0, 0, 0); text-anchor: start; font-family: Arial; font-size: 14px;" id="cond3t" class="flowchartt" transform="matrix(1,0,0,1,262.25,792.5234)" stroke-width="1"><tspan dy="5" style="-webkit-tap-highlight-color: rgba(0, 0, 0, 0);">reset password?</tspan></text><rect x="0" y="0" width="89" height="36" rx="0" ry="0" fill="#ffffff" stroke="#000000" style="-webkit-tap-highlight-color: rgba(0, 0, 0, 0);" stroke-width="3" class="flowchart" id="op3" transform="matrix(1,0,0,1,577.5,825.1484)"></rect><text x="10" y="18" text-anchor="start" font-family="&quot;Arial&quot;" font-size="14px" stroke="none" fill="#000000" style="-webkit-tap-highlight-color: rgba(0, 0, 0, 0); text-anchor: start; font-family: Arial; font-size: 14px;" id="op3t" class="flowchartt" transform="matrix(1,0,0,1,577.5,825.1484)" stroke-width="1"><tspan dy="5" style="-webkit-tap-highlight-color: rgba(0, 0, 0, 0);">send email</tspan></text><a xlink:href="https://medium.com/@adrai/8-signs-you-should-improve-your-localization-process-3dc075d53998" xlink:show="new" style="-webkit-tap-highlight-color: rgba(0, 0, 0, 0);"><rect x="0" y="0" width="201" height="69.59375" rx="0" ry="0" fill="#ffffff" stroke="#000000" style="-webkit-tap-highlight-color: rgba(0, 0, 0, 0);" stroke-width="3" class="flowchart" id="sub2" transform="matrix(1,0,0,1,260.75,404.1016)"></rect></a><a xlink:href="https://medium.com/@adrai/8-signs-you-should-improve-your-localization-process-3dc075d53998" xlink:show="new" style="-webkit-tap-highlight-color: rgba(0, 0, 0, 0);"><rect x="10" y="0" width="181" height="69.59375" rx="0" ry="0" fill="#ffffff" stroke="#000000" style="-webkit-tap-highlight-color: rgba(0, 0, 0, 0);" stroke-width="3" id="sub2i" transform="matrix(1,0,0,1,260.75,404.1016)"></rect></a><a xlink:href="https://medium.com/@adrai/8-signs-you-should-improve-your-localization-process-3dc075d53998" xlink:show="new" style="-webkit-tap-highlight-color: rgba(0, 0, 0, 0);"><text x="20" y="34.796875" text-anchor="start" font-family="&quot;Arial&quot;" font-size="14px" stroke="none" fill="#000000" style="-webkit-tap-highlight-color: rgba(0, 0, 0, 0); text-anchor: start; font-family: Arial; font-size: 14px;" id="sub2t" class="flowchartt" transform="matrix(1,0,0,1,260.75,404.1016)" stroke-width="1"><tspan dy="-11.796875" style="-webkit-tap-highlight-color: rgba(0, 0, 0, 0);">Read about improving</tspan><tspan dy="16.8" x="20" style="-webkit-tap-highlight-color: rgba(0, 0, 0, 0);">your localization workflow</tspan><tspan dy="16.8" x="20" style="-webkit-tap-highlight-color: rgba(0, 0, 0, 0);">or another source</tspan></text></a><path fill="none" stroke="#ff0000" d="M107.25,83.0234375C107.25,83.0234375,107.25,149.10898188501596,107.25,167.14697959557452" stroke-width="3" marker-end="url(#raphael-marker-endblock33-obj15ay0)" style="-webkit-tap-highlight-color: rgba(0, 0, 0, 0);"></path><path fill="none" stroke="#ff0000" d="M107.25,207.6484375C107.25,207.6484375,107.25,273.73398188501596,107.25,291.7719795955745" stroke-width="3" marker-end="url(#raphael-marker-endblock33-objv1vlc)" style="-webkit-tap-highlight-color: rgba(0, 0, 0, 0);"></path><path fill="none" stroke="#ff0000" d="M107.25,332.2734375C107.25,332.2734375,107.25,372.36221224069595,107.25,386.02528097556205" stroke-width="3" marker-end="url(#raphael-marker-endblock33-obj19rhv)" style="-webkit-tap-highlight-color: rgba(0, 0, 0, 0);"></path><path fill="none" stroke="#ff0000" d="M107.25,487.2734375C107.25,487.2734375,107.25,553.358981885016,107.25,571.3969795955745" stroke-width="3" marker-end="url(#raphael-marker-endblock33-objok14b)" style="-webkit-tap-highlight-color: rgba(0, 0, 0, 0);"></path><text x="112.25" y="497.2734375" text-anchor="start" font-family="&quot;Arial&quot;" font-size="14px" stroke="none" fill="#000000" style="-webkit-tap-highlight-color: rgba(0, 0, 0, 0); text-anchor: start; font-family: Arial; font-size: 14px;" stroke-width="1"><tspan dy="5.0078125" style="-webkit-tap-highlight-color: rgba(0, 0, 0, 0);">yes</tspan></text><path fill="none" stroke="#000000" d="M204,438.8984375C204,438.8984375,242.82690501213074,438.8984375,256.2494874089025,438.8984375" stroke-width="3" marker-end="url(#raphael-marker-endblock33-obj7nf7o)" style="-webkit-tap-highlight-color: rgba(0, 0, 0, 0);"></path><text x="209" y="428.8984375" text-anchor="start" font-family="&quot;Arial&quot;" font-size="14px" stroke="none" fill="#000000" style="-webkit-tap-highlight-color: rgba(0, 0, 0, 0); text-anchor: start; font-family: Arial; font-size: 14px;" stroke-width="1"><tspan dy="5.0078125" style="-webkit-tap-highlight-color: rgba(0, 0, 0, 0);">no</tspan></text><path fill="none" stroke="#ff0000" d="M107.25,611.8984375C107.25,611.8984375,107.25,677.983981885016,107.25,696.0219795955745" stroke-width="3" marker-end="url(#raphael-marker-endblock33-obj16jk4)" style="-webkit-tap-highlight-color: rgba(0, 0, 0, 0);"></path><path fill="none" stroke="#ff0000" d="M107.25,736.5234375C107.25,736.5234375,107.25,775.6530649960041,107.25,789.1420869746071" stroke-width="3" marker-end="url(#raphael-marker-endblock33-obju9z5w)" style="-webkit-tap-highlight-color: rgba(0, 0, 0, 0);"></path><path fill="none" stroke="#ff0000" d="M107.25,892.6484375C107.25,892.6484375,107.25,958.733981885016,107.25,976.7719795955745" stroke-width="3" marker-end="url(#raphael-marker-endblock33-objhqhyf)" style="-webkit-tap-highlight-color: rgba(0, 0, 0, 0);"></path><text x="112.25" y="902.6484375" text-anchor="start" font-family="&quot;Arial&quot;" font-size="14px" stroke="none" fill="#000000" style="-webkit-tap-highlight-color: rgba(0, 0, 0, 0); text-anchor: start; font-family: Arial; font-size: 14px;" stroke-width="1"><tspan dy="5.0078125" style="-webkit-tap-highlight-color: rgba(0, 0, 0, 0);">yes</tspan></text><path fill="none" stroke="#000000" d="M206.25,843.1484375C206.25,843.1484375,244.45077085494995,843.1484375,257.75016031763516,843.1484375" stroke-width="3" marker-end="url(#raphael-marker-endblock33-objux7vp)" style="-webkit-tap-highlight-color: rgba(0, 0, 0, 0);"></path><text x="211.25" y="833.1484375" text-anchor="start" font-family="&quot;Arial&quot;" font-size="14px" stroke="none" fill="#000000" style="-webkit-tap-highlight-color: rgba(0, 0, 0, 0); text-anchor: start; font-family: Arial; font-size: 14px;" stroke-width="1"><tspan dy="5.0078125" style="-webkit-tap-highlight-color: rgba(0, 0, 0, 0);">no</tspan></text><path fill="none" stroke="#ff0000" d="M107.25,1017.2734375C107.25,1017.2734375,107.25,1083.358981885016,107.25,1101.3969795955745" stroke-width="3" marker-end="url(#raphael-marker-endblock33-obj69y87)" style="-webkit-tap-highlight-color: rgba(0, 0, 0, 0);"></path><path fill="none" stroke="#ff0000" d="M107.25,1141.8984375C107.25,1141.8984375,107.25,1207.983981885016,107.25,1226.0219795955745" stroke-width="3" marker-end="url(#raphael-marker-endblock33-obj3znco)" style="-webkit-tap-highlight-color: rgba(0, 0, 0, 0);"></path><path fill="none" stroke="#ff0000" d="M107.25,1266.5234375C107.25,1266.5234375,107.25,1314.8612630739808,107.25,1340.1394911939678" stroke-width="6" marker-end="url(#raphael-marker-endclassic55-obj6gzis)" style="-webkit-tap-highlight-color: rgba(0, 0, 0, 0);"></path><path fill="none" stroke="#000000" d="M464.75,843.1484375C464.75,843.1484375,551.9919127672911,843.1484375,572.9930177449642,843.1484375" stroke-width="3" marker-end="url(#raphael-marker-endblock33-obj9l732)" style="-webkit-tap-highlight-color: rgba(0, 0, 0, 0);"></path><text x="469.75" y="833.1484375" text-anchor="start" font-family="&quot;Arial&quot;" font-size="14px" stroke="none" fill="#000000" style="-webkit-tap-highlight-color: rgba(0, 0, 0, 0); text-anchor: start; font-family: Arial; font-size: 14px;" stroke-width="1"><tspan dy="5.0078125" style="-webkit-tap-highlight-color: rgba(0, 0, 0, 0);">yes</tspan></text><path fill="none" stroke="#000000" d="M363.5,893.7734375C363.5,893.7734375,363.5,918.7734375,363.5,918.7734375C363.5,918.7734375,491.625,918.7734375,491.625,918.7734375C491.625,918.7734375,491.625,849.1484375,491.625,849.1484375C491.625,849.1484375,503.625,843.1484375,491.625,837.1484375C491.625,837.1484375,491.625,675.5234375,491.625,675.5234375C491.625,675.5234375,107.25,675.5234375,107.25,675.5234375C107.25,675.5234375,107.25,688.8274087905884,107.25,696.0250651333481" stroke-width="3" marker-end="url(#raphael-marker-endblock33-obj83arg)" style="-webkit-tap-highlight-color: rgba(0, 0, 0, 0);"></path><text x="368.5" y="903.7734375" text-anchor="start" font-family="&quot;Arial&quot;" font-size="14px" stroke="none" fill="#000000" style="-webkit-tap-highlight-color: rgba(0, 0, 0, 0); text-anchor: start; font-family: Arial; font-size: 14px;" stroke-width="1"><tspan dy="5.0078125" style="-webkit-tap-highlight-color: rgba(0, 0, 0, 0);">no</tspan></text><path fill="none" stroke="#000000" d="M666.5,843.1484375C666.5,843.1484375,691.5,843.1484375,691.5,843.1484375C691.5,843.1484375,691.5,675.5234375,691.5,675.5234375C691.5,675.5234375,107.25,675.5234375,107.25,675.5234375C107.25,675.5234375,107.25,688.8274087905884,107.25,696.0250651333481" stroke-width="3" marker-end="url(#raphael-marker-endblock33-objv08v1)" style="-webkit-tap-highlight-color: rgba(0, 0, 0, 0);"></path><path fill="none" stroke="#000000" d="M461.75,438.8984375C461.75,438.8984375,486.75,438.8984375,486.75,438.8984375C486.75,438.8984375,486.75,146.6484375,486.75,146.6484375C486.75,146.6484375,107.25,146.6484375,107.25,146.6484375C107.25,146.6484375,107.25,159.95240879058838,107.25,167.1500651333481" stroke-width="3" marker-end="url(#raphael-marker-endblock33-obj9k6bz)" style="-webkit-tap-highlight-color: rgba(0, 0, 0, 0);"></path></svg>