<svg height="542.5859375" version="1.1" width="386.75" xmlns="http://www.w3.org/2000/svg" xmlns:xlink="http://www.w3.org/1999/xlink" style="overflow: hidden; position: relative;" viewBox="0 0 386.75 542.5859375" preserveAspectRatio="xMidYMid meet"><desc style="-webkit-tap-highlight-color: rgba(0, 0, 0, 0);">Created with Raphaël 2.2.0</desc><defs style="-webkit-tap-highlight-color: rgba(0, 0, 0, 0);"><path stroke-linecap="round" d="M5,0 0,2.5 5,5z" id="raphael-marker-block" style="-webkit-tap-highlight-color: rgba(0, 0, 0, 0);"></path><marker id="raphael-marker-endblock33-objv8pus" markerHeight="3" markerWidth="3" orient="auto" refX="1.5" refY="1.5" style="-webkit-tap-highlight-color: rgba(0, 0, 0, 0);"><use xlink:href="#raphael-marker-block" transform="rotate(180 1.5 1.5) scale(0.6,0.6)" stroke-width="1.6667" fill="black" stroke="none" style="-webkit-tap-highlight-color: rgba(0, 0, 0, 0);"></use></marker><marker id="raphael-marker-endblock33-objji323" markerHeight="3" markerWidth="3" orient="auto" refX="1.5" refY="1.5" style="-webkit-tap-highlight-color: rgba(0, 0, 0, 0);"><use xlink:href="#raphael-marker-block" transform="rotate(180 1.5 1.5) scale(0.6,0.6)" stroke-width="1.6667" fill="black" stroke="none" style="-webkit-tap-highlight-color: rgba(0, 0, 0, 0);"></use></marker><marker id="raphael-marker-endblock33-objf17ej" markerHeight="3" markerWidth="3" orient="auto" refX="1.5" refY="1.5" style="-webkit-tap-highlight-color: rgba(0, 0, 0, 0);"><use xlink:href="#raphael-marker-block" transform="rotate(180 1.5 1.5) scale(0.6,0.6)" stroke-width="1.6667" fill="black" stroke="none" style="-webkit-tap-highlight-color: rgba(0, 0, 0, 0);"></use></marker><marker id="raphael-marker-endblock33-objf9plc" markerHeight="3" markerWidth="3" orient="auto" refX="1.5" refY="1.5" style="-webkit-tap-highlight-color: rgba(0, 0, 0, 0);"><use xlink:href="#raphael-marker-block" transform="rotate(180 1.5 1.5) scale(0.6,0.6)" stroke-width="1.6667" fill="black" stroke="none" style="-webkit-tap-highlight-color: rgba(0, 0, 0, 0);"></use></marker><marker id="raphael-marker-endblock33-objd7d5v" markerHeight="3" markerWidth="3" orient="auto" refX="1.5" refY="1.5" style="-webkit-tap-highlight-color: rgba(0, 0, 0, 0);"><use xlink:href="#raphael-marker-block" transform="rotate(180 1.5 1.5) scale(0.6,0.6)" stroke-width="1.6667" fill="black" stroke="none" style="-webkit-tap-highlight-color: rgba(0, 0, 0, 0);"></use></marker><marker id="raphael-marker-endblock33-obj4ct0o" markerHeight="3" markerWidth="3" orient="auto" refX="1.5" refY="1.5" style="-webkit-tap-highlight-color: rgba(0, 0, 0, 0);"><use xlink:href="#raphael-marker-block" transform="rotate(180 1.5 1.5) scale(0.6,0.6)" stroke-width="1.6667" fill="black" stroke="none" style="-webkit-tap-highlight-color: rgba(0, 0, 0, 0);"></use></marker><marker id="raphael-marker-endblock33-objunnlr" markerHeight="3" markerWidth="3" orient="auto" refX="1.5" refY="1.5" style="-webkit-tap-highlight-color: rgba(0, 0, 0, 0);"><use xlink:href="#raphael-marker-block" transform="rotate(180 1.5 1.5) scale(0.6,0.6)" stroke-width="1.6667" fill="black" stroke="none" style="-webkit-tap-highlight-color: rgba(0, 0, 0, 0);"></use></marker><marker id="raphael-marker-endblock33-objc3mwa" markerHeight="3" markerWidth="3" orient="auto" refX="1.5" refY="1.5" style="-webkit-tap-highlight-color: rgba(0, 0, 0, 0);"><use xlink:href="#raphael-marker-block" transform="rotate(180 1.5 1.5) scale(0.6,0.6)" stroke-width="1.6667" fill="black" stroke="none" style="-webkit-tap-highlight-color: rgba(0, 0, 0, 0);"></use></marker></defs><a xlink:href="http://www.google.com" xlink:show="new" style="-webkit-tap-highlight-color: rgba(0, 0, 0, 0);"><rect x="0" y="0" width="50" height="36" rx="20" ry="20" fill="#ffffff" stroke="#000000" style="-webkit-tap-highlight-color: rgba(0, 0, 0, 0);" stroke-width="3" class="flowchart" id="st" transform="matrix(1,0,0,1,69,27.5977)"></rect></a><a xlink:href="http://www.google.com" xlink:show="new" style="-webkit-tap-highlight-color: rgba(0, 0, 0, 0);"><text x="10" y="18" text-anchor="start" font-family="&quot;Arial&quot;" font-size="14px" stroke="none" fill="#000000" style="-webkit-tap-highlight-color: rgba(0, 0, 0, 0); text-anchor: start; font-family: Arial; font-size: 14px;" id="stt" class="flowchartt" transform="matrix(1,0,0,1,69,27.5977)" stroke-width="1"><tspan dy="5" style="-webkit-tap-highlight-color: rgba(0, 0, 0, 0);">Start</tspan></text></a><rect x="0" y="0" width="106" height="36" rx="0" ry="0" fill="#ffffff" stroke="#000000" style="-webkit-tap-highlight-color: rgba(0, 0, 0, 0);" stroke-width="3" class="flowchart" id="op1" transform="matrix(1,0,0,1,41,141.1953)"></rect><text x="10" y="18" text-anchor="start" font-family="&quot;Arial&quot;" font-size="14px" stroke="none" fill="#000000" style="-webkit-tap-highlight-color: rgba(0, 0, 0, 0); text-anchor: start; font-family: Arial; font-size: 14px;" id="op1t" class="flowchartt" transform="matrix(1,0,0,1,41,141.1953)" stroke-width="1"><tspan dy="5" style="-webkit-tap-highlight-color: rgba(0, 0, 0, 0);">My Operation</tspan></text><a xlink:href="http://www.google.com" style="-webkit-tap-highlight-color: rgba(0, 0, 0, 0);"><path fill="#ffffff" stroke="#000000" d="M27.375,19.798828125L0,39.59765625L54.75,79.1953125L109.5,39.59765625L54.75,0L0,39.59765625" stroke-width="3" id="cond" class="flowchart" style="-webkit-tap-highlight-color: rgba(0, 0, 0, 0);" transform="matrix(1,0,0,1,39.25,233.1953)"></path></a><a xlink:href="http://www.google.com" style="-webkit-tap-highlight-color: rgba(0, 0, 0, 0);"><text x="32.375" y="39.59765625" text-anchor="start" font-family="&quot;Arial&quot;" font-size="14px" stroke="none" fill="#000000" style="-webkit-tap-highlight-color: rgba(0, 0, 0, 0); text-anchor: start; font-family: Arial; font-size: 14px;" id="condt" class="flowchartt" transform="matrix(1,0,0,1,39.25,233.1953)" stroke-width="1"><tspan dy="-3.39453125" style="-webkit-tap-highlight-color: rgba(0, 0, 0, 0);">Yes</tspan><tspan dy="16.8" x="32.375" style="-webkit-tap-highlight-color: rgba(0, 0, 0, 0);">or No?</tspan></text></a><path fill="#ffffff" stroke="#000000" d="M10,18L0,36L156,36L176,0L20,0L10,18" stroke-width="3" id="io" class="flowchart" style="-webkit-tap-highlight-color: rgba(0, 0, 0, 0);" transform="matrix(1,0,0,1,6,389.9883)"></path><text x="30" y="18" text-anchor="start" font-family="&quot;Arial&quot;" font-size="14px" stroke="none" fill="#000000" style="-webkit-tap-highlight-color: rgba(0, 0, 0, 0); text-anchor: start; font-family: Arial; font-size: 14px;" id="iot" class="flowchartt" transform="matrix(1,0,0,1,6,389.9883)" stroke-width="1"><tspan dy="5" style="-webkit-tap-highlight-color: rgba(0, 0, 0, 0);">catch something...</tspan></text><a xlink:href="http://www.google.com" style="-webkit-tap-highlight-color: rgba(0, 0, 0, 0);"><rect x="0" y="0" width="45" height="36" rx="20" ry="20" fill="#ffffff" stroke="#000000" style="-webkit-tap-highlight-color: rgba(0, 0, 0, 0);" stroke-width="3" class="flowchart" id="e" transform="matrix(1,0,0,1,71.5,503.5859)"></rect></a><a xlink:href="http://www.google.com" style="-webkit-tap-highlight-color: rgba(0, 0, 0, 0);"><text x="10" y="18" text-anchor="start" font-family="&quot;Arial&quot;" font-size="14px" stroke="none" fill="#000000" style="-webkit-tap-highlight-color: rgba(0, 0, 0, 0); text-anchor: start; font-family: Arial; font-size: 14px;" id="et" class="flowchartt" transform="matrix(1,0,0,1,71.5,503.5859)" stroke-width="1"><tspan dy="5" style="-webkit-tap-highlight-color: rgba(0, 0, 0, 0);">End</tspan></text></a><rect x="0" y="0" width="103" height="36" rx="0" ry="0" fill="#ffffff" stroke="#000000" style="-webkit-tap-highlight-color: rgba(0, 0, 0, 0);" stroke-width="3" class="flowchart" id="para" transform="matrix(1,0,0,1,241.25,254.793)"></rect><text x="10" y="18" text-anchor="start" font-family="&quot;Arial&quot;" font-size="14px" stroke="none" fill="#000000" style="-webkit-tap-highlight-color: rgba(0, 0, 0, 0); text-anchor: start; font-family: Arial; font-size: 14px;" id="parat" class="flowchartt" transform="matrix(1,0,0,1,241.25,254.793)" stroke-width="1"><tspan dy="5" style="-webkit-tap-highlight-color: rgba(0, 0, 0, 0);">parallel tasks</tspan></text><rect x="0" y="0" width="132" height="36" rx="0" ry="0" fill="#ffffff" stroke="#000000" style="-webkit-tap-highlight-color: rgba(0, 0, 0, 0);" stroke-width="3" class="flowchart" id="sub1" transform="matrix(1,0,0,1,226.75,368.3906)"></rect><rect x="10" y="0" width="112" height="36" rx="0" ry="0" fill="#ffffff" stroke="#000000" style="-webkit-tap-highlight-color: rgba(0, 0, 0, 0);" stroke-width="3" id="sub1i" transform="matrix(1,0,0,1,226.75,368.3906)"></rect><text x="20" y="18" text-anchor="start" font-family="&quot;Arial&quot;" font-size="14px" stroke="none" fill="#000000" style="-webkit-tap-highlight-color: rgba(0, 0, 0, 0); text-anchor: start; font-family: Arial; font-size: 14px;" id="sub1t" class="flowchartt" transform="matrix(1,0,0,1,226.75,368.3906)" stroke-width="1"><tspan dy="5" style="-webkit-tap-highlight-color: rgba(0, 0, 0, 0);">My Subroutine</tspan></text><path fill="none" stroke="#000000" d="M94,63.59765625C94,63.59765625,94,120.1266892105341,94,136.68792933569057" stroke-width="3" marker-end="url(#raphael-marker-endblock33-objv8pus)" style="-webkit-tap-highlight-color: rgba(0, 0, 0, 0);"></path><path fill="none" stroke="#000000" d="M94,177.1953125C94,177.1953125,94,215.39608335494995,94,228.69547281763516" stroke-width="3" marker-end="url(#raphael-marker-endblock33-objji323)" style="-webkit-tap-highlight-color: rgba(0, 0, 0, 0);"></path><path fill="none" stroke="#000000" d="M94,312.390625C94,312.390625,94,368.9196579605341,94,385.48089808569057" stroke-width="3" marker-end="url(#raphael-marker-endblock33-objf17ej)" style="-webkit-tap-highlight-color: rgba(0, 0, 0, 0);"></path><text x="99" y="322.390625" text-anchor="start" font-family="&quot;Arial&quot;" font-size="14px" stroke="none" fill="#000000" style="-webkit-tap-highlight-color: rgba(0, 0, 0, 0); text-anchor: start; font-family: Arial; font-size: 14px;" stroke-width="1"><tspan dy="5" style="-webkit-tap-highlight-color: rgba(0, 0, 0, 0);">yes</tspan></text><path fill="none" stroke="#000000" d="M148.75,272.79296875C148.75,272.79296875,218.23299705982208,272.79296875,236.75727264315356,272.79296875" stroke-width="3" marker-end="url(#raphael-marker-endblock33-objf9plc)" style="-webkit-tap-highlight-color: rgba(0, 0, 0, 0);"></path><text x="153.75" y="262.79296875" text-anchor="start" font-family="&quot;Arial&quot;" font-size="14px" stroke="none" fill="#000000" style="-webkit-tap-highlight-color: rgba(0, 0, 0, 0); text-anchor: start; font-family: Arial; font-size: 14px;" stroke-width="1"><tspan dy="5.01171875" style="-webkit-tap-highlight-color: rgba(0, 0, 0, 0);">no</tspan></text><path fill="none" stroke="#000000" d="M94,425.98828125C94,425.98828125,94,482.5173142105341,94,499.07855433569057" stroke-width="3" marker-end="url(#raphael-marker-endblock33-objd7d5v)" style="-webkit-tap-highlight-color: rgba(0, 0, 0, 0);"></path><path fill="none" stroke="#000000" d="M292.75,290.79296875C292.75,290.79296875,292.75,347.3220017105341,292.75,363.88324183569057" stroke-width="3" marker-end="url(#raphael-marker-endblock33-obj4ct0o)" style="-webkit-tap-highlight-color: rgba(0, 0, 0, 0);"></path><path fill="none" stroke="#000000" d="M292.75,254.79296875C292.75,254.79296875,292.75,116.1953125,292.75,116.1953125C292.75,116.1953125,94,116.1953125,94,116.1953125C94,116.1953125,94,129.49928379058838,94,136.6969401333481" stroke-width="3" marker-end="url(#raphael-marker-endblock33-objunnlr)" style="-webkit-tap-highlight-color: rgba(0, 0, 0, 0);"></path><path fill="none" stroke="#000000" d="M358.75,386.390625C358.75,386.390625,383.75,386.390625,383.75,386.390625C383.75,386.390625,383.75,116.1953125,383.75,116.1953125C383.75,116.1953125,94,116.1953125,94,116.1953125C94,116.1953125,94,129.49928379058838,94,136.6969401333481" stroke-width="3" marker-end="url(#raphael-marker-endblock33-objc3mwa)" style="-webkit-tap-highlight-color: rgba(0, 0, 0, 0);"></path></svg>