<svg height="425.390625" version="1.1" width="816.75" xmlns="http://www.w3.org/2000/svg" xmlns:xlink="http://www.w3.org/1999/xlink" style="overflow: hidden; position: relative;" viewBox="0 0 816.75 425.390625" preserveAspectRatio="xMidYMid meet"><desc style="-webkit-tap-highlight-color: rgba(0, 0, 0, 0);">Created with Raphaël 2.2.0</desc><defs style="-webkit-tap-highlight-color: rgba(0, 0, 0, 0);"><path stroke-linecap="round" d="M5,0 0,2.5 5,5z" id="raphael-marker-block" style="-webkit-tap-highlight-color: rgba(0, 0, 0, 0);"></path><marker id="raphael-marker-endblock33-obj9osii" markerHeight="3" markerWidth="3" orient="auto" refX="1.5" refY="1.5" style="-webkit-tap-highlight-color: rgba(0, 0, 0, 0);"><use xlink:href="#raphael-marker-block" transform="rotate(180 1.5 1.5) scale(0.6,0.6)" stroke-width="1.6667" fill="black" stroke="none" style="-webkit-tap-highlight-color: rgba(0, 0, 0, 0);"></use></marker><marker id="raphael-marker-endblock33-obj00f21" markerHeight="3" markerWidth="3" orient="auto" refX="1.5" refY="1.5" style="-webkit-tap-highlight-color: rgba(0, 0, 0, 0);"><use xlink:href="#raphael-marker-block" transform="rotate(180 1.5 1.5) scale(0.6,0.6)" stroke-width="1.6667" fill="black" stroke="none" style="-webkit-tap-highlight-color: rgba(0, 0, 0, 0);"></use></marker><marker id="raphael-marker-endblock33-obj4lsy1" markerHeight="3" markerWidth="3" orient="auto" refX="1.5" refY="1.5" style="-webkit-tap-highlight-color: rgba(0, 0, 0, 0);"><use xlink:href="#raphael-marker-block" transform="rotate(180 1.5 1.5) scale(0.6,0.6)" stroke-width="1.6667" fill="black" stroke="none" style="-webkit-tap-highlight-color: rgba(0, 0, 0, 0);"></use></marker><marker id="raphael-marker-endblock33-objf98xj" markerHeight="3" markerWidth="3" orient="auto" refX="1.5" refY="1.5" style="-webkit-tap-highlight-color: rgba(0, 0, 0, 0);"><use xlink:href="#raphael-marker-block" transform="rotate(180 1.5 1.5) scale(0.6,0.6)" stroke-width="1.6667" fill="black" stroke="none" style="-webkit-tap-highlight-color: rgba(0, 0, 0, 0);"></use></marker><marker id="raphael-marker-endblock33-obj42q4c" markerHeight="3" markerWidth="3" orient="auto" refX="1.5" refY="1.5" style="-webkit-tap-highlight-color: rgba(0, 0, 0, 0);"><use xlink:href="#raphael-marker-block" transform="rotate(180 1.5 1.5) scale(0.6,0.6)" stroke-width="1.6667" fill="black" stroke="none" style="-webkit-tap-highlight-color: rgba(0, 0, 0, 0);"></use></marker><marker id="raphael-marker-endblock33-objjl8wl" markerHeight="3" markerWidth="3" orient="auto" refX="1.5" refY="1.5" style="-webkit-tap-highlight-color: rgba(0, 0, 0, 0);"><use xlink:href="#raphael-marker-block" transform="rotate(180 1.5 1.5) scale(0.6,0.6)" stroke-width="1.6667" fill="black" stroke="none" style="-webkit-tap-highlight-color: rgba(0, 0, 0, 0);"></use></marker><marker id="raphael-marker-endblock33-obja0n82" markerHeight="3" markerWidth="3" orient="auto" refX="1.5" refY="1.5" style="-webkit-tap-highlight-color: rgba(0, 0, 0, 0);"><use xlink:href="#raphael-marker-block" transform="rotate(180 1.5 1.5) scale(0.6,0.6)" stroke-width="1.6667" fill="black" stroke="none" style="-webkit-tap-highlight-color: rgba(0, 0, 0, 0);"></use></marker><marker id="raphael-marker-endblock33-objw707k" markerHeight="3" markerWidth="3" orient="auto" refX="1.5" refY="1.5" style="-webkit-tap-highlight-color: rgba(0, 0, 0, 0);"><use xlink:href="#raphael-marker-block" transform="rotate(180 1.5 1.5) scale(0.6,0.6)" stroke-width="1.6667" fill="black" stroke="none" style="-webkit-tap-highlight-color: rgba(0, 0, 0, 0);"></use></marker><marker id="raphael-marker-endblock33-objc4lb6" markerHeight="3" markerWidth="3" orient="auto" refX="1.5" refY="1.5" style="-webkit-tap-highlight-color: rgba(0, 0, 0, 0);"><use xlink:href="#raphael-marker-block" transform="rotate(180 1.5 1.5) scale(0.6,0.6)" stroke-width="1.6667" fill="black" stroke="none" style="-webkit-tap-highlight-color: rgba(0, 0, 0, 0);"></use></marker></defs><a xlink:href="http://www.google.com" xlink:show="new" style="-webkit-tap-highlight-color: rgba(0, 0, 0, 0);"><rect x="0" y="0" width="50" height="36" rx="20" ry="20" fill="#ffffff" stroke="#000000" style="-webkit-tap-highlight-color: rgba(0, 0, 0, 0);" stroke-width="3" class="flowchart" id="st" transform="matrix(1,0,0,1,69,27.5977)"></rect></a><a xlink:href="http://www.google.com" xlink:show="new" style="-webkit-tap-highlight-color: rgba(0, 0, 0, 0);"><text x="10" y="18" text-anchor="start" font-family="&quot;Arial&quot;" font-size="14px" stroke="none" fill="#000000" style="-webkit-tap-highlight-color: rgba(0, 0, 0, 0); text-anchor: start; font-family: Arial; font-size: 14px;" id="stt" class="flowchartt" transform="matrix(1,0,0,1,69,27.5977)" stroke-width="1"><tspan dy="5" style="-webkit-tap-highlight-color: rgba(0, 0, 0, 0);">Start</tspan></text></a><rect x="0" y="0" width="106" height="36" rx="0" ry="0" fill="#ffffff" stroke="#000000" style="-webkit-tap-highlight-color: rgba(0, 0, 0, 0);" stroke-width="3" class="flowchart" id="op1" transform="matrix(1,0,0,1,41,141.1953)"></rect><text x="10" y="18" text-anchor="start" font-family="&quot;Arial&quot;" font-size="14px" stroke="none" fill="#000000" style="-webkit-tap-highlight-color: rgba(0, 0, 0, 0); text-anchor: start; font-family: Arial; font-size: 14px;" id="op1t" class="flowchartt" transform="matrix(1,0,0,1,41,141.1953)" stroke-width="1"><tspan dy="5" style="-webkit-tap-highlight-color: rgba(0, 0, 0, 0);">My Operation</tspan></text><a xlink:href="http://www.google.com" style="-webkit-tap-highlight-color: rgba(0, 0, 0, 0);"><path fill="#ffffff" stroke="#000000" d="M27.375,19.798828125L0,39.59765625L54.75,79.1953125L109.5,39.59765625L54.75,0L0,39.59765625" stroke-width="3" id="cond" class="flowchart" style="-webkit-tap-highlight-color: rgba(0, 0, 0, 0);" transform="matrix(1,0,0,1,236.25,119.5977)"></path></a><a xlink:href="http://www.google.com" style="-webkit-tap-highlight-color: rgba(0, 0, 0, 0);"><text x="32.375" y="39.59765625" text-anchor="start" font-family="&quot;Arial&quot;" font-size="14px" stroke="none" fill="#000000" style="-webkit-tap-highlight-color: rgba(0, 0, 0, 0); text-anchor: start; font-family: Arial; font-size: 14px;" id="condt" class="flowchartt" transform="matrix(1,0,0,1,236.25,119.5977)" stroke-width="1"><tspan dy="-3.39453125" style="-webkit-tap-highlight-color: rgba(0, 0, 0, 0);">Yes</tspan><tspan dy="16.8" x="32.375" style="-webkit-tap-highlight-color: rgba(0, 0, 0, 0);">or No?</tspan></text></a><path fill="#ffffff" stroke="#000000" d="M36,18L0,36L72,72L144,36L72,0L0,36" stroke-width="3" id="c2" class="flowchart" style="-webkit-tap-highlight-color: rgba(0, 0, 0, 0);" transform="matrix(1,0,0,1,417.75,123.1953)"></path><text x="41" y="36" text-anchor="start" font-family="&quot;Arial&quot;" font-size="14px" stroke="none" fill="#000000" style="-webkit-tap-highlight-color: rgba(0, 0, 0, 0); text-anchor: start; font-family: Arial; font-size: 14px;" id="c2t" class="flowchartt" transform="matrix(1,0,0,1,417.75,123.1953)" stroke-width="1"><tspan dy="5" style="-webkit-tap-highlight-color: rgba(0, 0, 0, 0);">Good idea</tspan></text><path fill="#ffffff" stroke="#000000" d="M10,18L0,36L156,36L176,0L20,0L10,18" stroke-width="3" id="io" class="flowchart" style="-webkit-tap-highlight-color: rgba(0, 0, 0, 0);" transform="matrix(1,0,0,1,401.75,272.793)"></path><text x="30" y="18" text-anchor="start" font-family="&quot;Arial&quot;" font-size="14px" stroke="none" fill="#000000" style="-webkit-tap-highlight-color: rgba(0, 0, 0, 0); text-anchor: start; font-family: Arial; font-size: 14px;" id="iot" class="flowchartt" transform="matrix(1,0,0,1,401.75,272.793)" stroke-width="1"><tspan dy="5" style="-webkit-tap-highlight-color: rgba(0, 0, 0, 0);">catch something...</tspan></text><a xlink:href="http://www.google.com" style="-webkit-tap-highlight-color: rgba(0, 0, 0, 0);"><rect x="0" y="0" width="45" height="36" rx="20" ry="20" fill="#ffffff" stroke="#000000" style="-webkit-tap-highlight-color: rgba(0, 0, 0, 0);" stroke-width="3" class="flowchart" id="e" transform="matrix(1,0,0,1,467.25,386.3906)"></rect></a><a xlink:href="http://www.google.com" style="-webkit-tap-highlight-color: rgba(0, 0, 0, 0);"><text x="10" y="18" text-anchor="start" font-family="&quot;Arial&quot;" font-size="14px" stroke="none" fill="#000000" style="-webkit-tap-highlight-color: rgba(0, 0, 0, 0); text-anchor: start; font-family: Arial; font-size: 14px;" id="et" class="flowchartt" transform="matrix(1,0,0,1,467.25,386.3906)" stroke-width="1"><tspan dy="5" style="-webkit-tap-highlight-color: rgba(0, 0, 0, 0);">End</tspan></text></a><rect x="0" y="0" width="50" height="36" rx="0" ry="0" fill="#ffffff" stroke="#000000" style="-webkit-tap-highlight-color: rgba(0, 0, 0, 0);" stroke-width="3" class="flowchart" id="op2" transform="matrix(1,0,0,1,680.75,141.1953)"></rect><text x="10" y="18" text-anchor="start" font-family="&quot;Arial&quot;" font-size="14px" stroke="none" fill="#000000" style="-webkit-tap-highlight-color: rgba(0, 0, 0, 0); text-anchor: start; font-family: Arial; font-size: 14px;" id="op2t" class="flowchartt" transform="matrix(1,0,0,1,680.75,141.1953)" stroke-width="1"><tspan dy="5" style="-webkit-tap-highlight-color: rgba(0, 0, 0, 0);">Stuff</tspan></text><rect x="0" y="0" width="132" height="36" rx="0" ry="0" fill="#ffffff" stroke="#000000" style="-webkit-tap-highlight-color: rgba(0, 0, 0, 0);" stroke-width="3" class="flowchart" id="sub1" transform="matrix(1,0,0,1,225,276.3906)"></rect><rect x="10" y="0" width="112" height="36" rx="0" ry="0" fill="#ffffff" stroke="#000000" style="-webkit-tap-highlight-color: rgba(0, 0, 0, 0);" stroke-width="3" id="sub1i" transform="matrix(1,0,0,1,225,276.3906)"></rect><text x="20" y="18" text-anchor="start" font-family="&quot;Arial&quot;" font-size="14px" stroke="none" fill="#000000" style="-webkit-tap-highlight-color: rgba(0, 0, 0, 0); text-anchor: start; font-family: Arial; font-size: 14px;" id="sub1t" class="flowchartt" transform="matrix(1,0,0,1,225,276.3906)" stroke-width="1"><tspan dy="5" style="-webkit-tap-highlight-color: rgba(0, 0, 0, 0);">My Subroutine</tspan></text><path fill="none" stroke="#000000" d="M94,63.59765625C94,63.59765625,94,120.1266892105341,94,136.68792933569057" stroke-width="3" marker-end="url(#raphael-marker-endblock33-obj9osii)" style="-webkit-tap-highlight-color: rgba(0, 0, 0, 0);"></path><path fill="none" stroke="#000000" d="M147,159.1953125C147,159.1953125,213.62687654793262,159.1953125,231.7475651403147,159.1953125" stroke-width="3" marker-end="url(#raphael-marker-endblock33-obj00f21)" style="-webkit-tap-highlight-color: rgba(0, 0, 0, 0);"></path><path fill="none" stroke="#000000" d="M345.75,159.1953125C345.75,159.1953125,397.4835205078125,159.1953125,413.2460775375366,159.1953125" stroke-width="3" marker-end="url(#raphael-marker-endblock33-obj4lsy1)" style="-webkit-tap-highlight-color: rgba(0, 0, 0, 0);"></path><text x="350.75" y="149.1953125" text-anchor="start" font-family="&quot;Arial&quot;" font-size="14px" stroke="none" fill="#000000" style="-webkit-tap-highlight-color: rgba(0, 0, 0, 0); text-anchor: start; font-family: Arial; font-size: 14px;" stroke-width="1"><tspan dy="5.0078125" style="-webkit-tap-highlight-color: rgba(0, 0, 0, 0);">yes</tspan></text><path fill="none" stroke="#000000" d="M291,198.79296875C291,198.79296875,291,255.3220017105341,291,271.88324183569057" stroke-width="3" marker-end="url(#raphael-marker-endblock33-objf98xj)" style="-webkit-tap-highlight-color: rgba(0, 0, 0, 0);"></path><text x="296" y="208.79296875" text-anchor="start" font-family="&quot;Arial&quot;" font-size="14px" stroke="none" fill="#000000" style="-webkit-tap-highlight-color: rgba(0, 0, 0, 0); text-anchor: start; font-family: Arial; font-size: 14px;" stroke-width="1"><tspan dy="5.01171875" style="-webkit-tap-highlight-color: rgba(0, 0, 0, 0);">no</tspan></text><path fill="none" stroke="#000000" d="M489.75,195.1953125C489.75,195.1953125,489.75,251.7243454605341,489.75,268.28558558569057" stroke-width="3" marker-end="url(#raphael-marker-endblock33-obj42q4c)" style="-webkit-tap-highlight-color: rgba(0, 0, 0, 0);"></path><text x="494.75" y="205.1953125" text-anchor="start" font-family="&quot;Arial&quot;" font-size="14px" stroke="none" fill="#000000" style="-webkit-tap-highlight-color: rgba(0, 0, 0, 0); text-anchor: start; font-family: Arial; font-size: 14px;" stroke-width="1"><tspan dy="5.0078125" style="-webkit-tap-highlight-color: rgba(0, 0, 0, 0);">yes</tspan></text><path fill="none" stroke="#000000" d="M561.75,159.1953125C561.75,159.1953125,654.5448946356773,159.1953125,676.2483880587679,159.1953125" stroke-width="3" marker-end="url(#raphael-marker-endblock33-objjl8wl)" style="-webkit-tap-highlight-color: rgba(0, 0, 0, 0);"></path><text x="566.75" y="149.1953125" text-anchor="start" font-family="&quot;Arial&quot;" font-size="14px" stroke="none" fill="#000000" style="-webkit-tap-highlight-color: rgba(0, 0, 0, 0); text-anchor: start; font-family: Arial; font-size: 14px;" stroke-width="1"><tspan dy="5.0078125" style="-webkit-tap-highlight-color: rgba(0, 0, 0, 0);">no</tspan></text><path fill="none" stroke="#000000" d="M489.75,308.79296875C489.75,308.79296875,489.75,365.3220017105341,489.75,381.88324183569057" stroke-width="3" marker-end="url(#raphael-marker-endblock33-obja0n82)" style="-webkit-tap-highlight-color: rgba(0, 0, 0, 0);"></path><path fill="none" stroke="#000000" d="M705.75,177.1953125C705.75,177.1953125,705.75,361.390625,705.75,361.390625C705.75,361.390625,489.75,361.390625,489.75,361.390625C489.75,361.390625,489.75,374.6945962905884,489.75,381.8922526333481" stroke-width="3" marker-end="url(#raphael-marker-endblock33-objw707k)" style="-webkit-tap-highlight-color: rgba(0, 0, 0, 0);"></path><path fill="none" stroke="#000000" d="M225,294.390625C225,294.390625,159.5,294.390625,159.5,294.390625C159.5,294.390625,159.5,165.1953125,159.5,165.1953125C159.5,165.1953125,171.5,159.1953125,159.5,153.1953125C159.5,153.1953125,159.5,116.1953125,159.5,116.1953125C159.5,116.1953125,94,116.1953125,94,116.1953125C94,116.1953125,94,129.49928379058838,94,136.6969401333481" stroke-width="3" marker-end="url(#raphael-marker-endblock33-objc4lb6)" style="-webkit-tap-highlight-color: rgba(0, 0, 0, 0);"></path></svg>